<?xml version="1.0" encoding="UTF-8" standalone="no"?><svg xmlns="http://www.w3.org/2000/svg" xmlns:xlink="http://www.w3.org/1999/xlink" contentScriptType="application/ecmascript" contentStyleType="text/css" height="1957px" preserveAspectRatio="none" style="width:667px;height:1957px;" version="1.1" viewBox="0 0 667 1957" width="667px" zoomAndPan="magnify"><defs><filter height="300%" id="f1oaphpqi1ywtg" width="300%" x="-1" y="-1"><feGaussianBlur result="blurOut" stdDeviation="2.0"/><feColorMatrix in="blurOut" result="blurOut2" type="matrix" values="0 0 0 0 0 0 0 0 0 0 0 0 0 0 0 0 0 0 .4 0"/><feOffset dx="4.0" dy="4.0" in="blurOut2" result="blurOut3"/><feBlend in="SourceGraphic" in2="blurOut3" mode="normal"/></filter></defs><g><!--class String--><rect fill="#FEFECE" filter="url(#f1oaphpqi1ywtg)" height="1417.7578" id="String" style="stroke: #A80036; stroke-width: 1.5;" width="290" x="167.5" y="8"/><ellipse cx="292.25" cy="24" fill="#ADD1B2" rx="11" ry="11" style="stroke: #A80036; stroke-width: 1.0;"/><path d="M295.0156,19.875 Q295.1719,19.6563 295.3594,19.5469 Q295.5469,19.4375 295.7656,19.4375 Q296.1406,19.4375 296.375,19.6953 Q296.6094,19.9531 296.6094,20.5625 L296.6094,22.0156 Q296.6094,22.625 296.375,22.8906 Q296.1406,23.1563 295.7656,23.1563 Q295.4219,23.1563 295.2188,22.9531 Q295.0156,22.7656 294.9063,22.25 Q294.8594,21.8906 294.6719,21.7031 Q294.3438,21.3281 293.7344,21.1094 Q293.125,20.8906 292.5,20.8906 Q291.7344,20.8906 291.1016,21.2188 Q290.4688,21.5469 289.9766,22.2969 Q289.4844,23.0469 289.4844,24.0781 L289.4844,25.1719 Q289.4844,26.4063 290.375,27.2266 Q291.2656,28.0469 292.8594,28.0469 Q293.7969,28.0469 294.4531,27.7969 Q294.8438,27.6406 295.2656,27.2031 Q295.5313,26.9375 295.6797,26.8594 Q295.8281,26.7813 296.0313,26.7813 Q296.3594,26.7813 296.6172,27.0391 Q296.875,27.2969 296.875,27.6406 Q296.875,27.9844 296.5313,28.3906 Q296.0313,28.9688 295.2344,29.2969 Q294.1563,29.75 292.8594,29.75 Q291.3438,29.75 290.1406,29.125 Q289.1563,28.625 288.4688,27.5547 Q287.7813,26.4844 287.7813,25.2031 L287.7813,24.0469 Q287.7813,22.7188 288.3984,21.5703 Q289.0156,20.4219 290.1094,19.8047 Q291.2031,19.1875 292.4375,19.1875 Q293.1719,19.1875 293.8203,19.3516 Q294.4688,19.5156 295.0156,19.875 Z "/><text fill="#000000" font-family="sans-serif" font-size="12" lengthAdjust="spacingAndGlyphs" textLength="32" x="312.75" y="28.9102">String</text><line style="stroke: #A80036; stroke-width: 1.5;" x1="168.5" x2="456.5" y1="40" y2="40"/><rect fill="none" height="6" style="stroke: #C82930; stroke-width: 1.0;" width="6" x="175.5" y="49.418"/><text fill="#000000" font-family="sans-serif" font-size="11" lengthAdjust="spacingAndGlyphs" textLength="57" x="187.5" y="55.4189">char[] value</text><rect fill="none" height="6" style="stroke: #C82930; stroke-width: 1.0;" width="6" x="175.5" y="63.2539"/><text fill="#000000" font-family="sans-serif" font-size="11" lengthAdjust="spacingAndGlyphs" textLength="38" x="187.5" y="69.2549">int hash</text><rect fill="none" height="6" style="stroke: #C82930; stroke-width: 1.0;" width="6" x="175.5" y="77.0898"/><text fill="#000000" font-family="sans-serif" font-size="11" lengthAdjust="spacingAndGlyphs" text-decoration="underline" textLength="103" x="187.5" y="83.0908">long serialVersionUID</text><line style="stroke: #000000; stroke-width: 1.0;" x1="187.5" x2="290.5" y1="85.0908" y2="85.0908"/><rect fill="none" height="6" style="stroke: #C82930; stroke-width: 1.0;" width="6" x="175.5" y="90.9258"/><text fill="#000000" font-family="sans-serif" font-size="11" lengthAdjust="spacingAndGlyphs" text-decoration="underline" textLength="198" x="187.5" y="96.9268">ObjectStreamField[] serialPersistentFields</text><line style="stroke: #000000; stroke-width: 1.0;" x1="187.5" x2="385.5" y1="98.9268" y2="98.9268"/><ellipse cx="178.5" cy="107.7617" fill="none" rx="3" ry="3" style="stroke: #038048; stroke-width: 1.0;"/><text fill="#000000" font-family="sans-serif" font-size="11" lengthAdjust="spacingAndGlyphs" text-decoration="underline" textLength="194" x="187.5" y="110.7627">Comparator CASE_INSENSITIVE_ORDER</text><line style="stroke: #000000; stroke-width: 1.0;" x1="187.5" x2="381.5" y1="112.7627" y2="112.7627"/><line style="stroke: #A80036; stroke-width: 1.5;" x1="168.5" x2="456.5" y1="117.1797" y2="117.1797"/><ellipse cx="178.5" cy="129.5977" fill="#84BE84" rx="3" ry="3" style="stroke: #038048; stroke-width: 1.0;"/><text fill="#000000" font-family="sans-serif" font-size="11" lengthAdjust="spacingAndGlyphs" textLength="36" x="187.5" y="132.5986">String()</text><ellipse cx="178.5" cy="143.4336" fill="#84BE84" rx="3" ry="3" style="stroke: #038048; stroke-width: 1.0;"/><text fill="#000000" font-family="sans-serif" font-size="11" lengthAdjust="spacingAndGlyphs" textLength="64" x="187.5" y="146.4346">String(String)</text><ellipse cx="178.5" cy="157.2695" fill="#84BE84" rx="3" ry="3" style="stroke: #038048; stroke-width: 1.0;"/><text fill="#000000" font-family="sans-serif" font-size="11" lengthAdjust="spacingAndGlyphs" textLength="64" x="187.5" y="160.2705">String(char[])</text><ellipse cx="178.5" cy="171.1055" fill="#84BE84" rx="3" ry="3" style="stroke: #038048; stroke-width: 1.0;"/><text fill="#000000" font-family="sans-serif" font-size="11" lengthAdjust="spacingAndGlyphs" textLength="98" x="187.5" y="174.1064">String(char[], int, int)</text><ellipse cx="178.5" cy="184.9414" fill="#84BE84" rx="3" ry="3" style="stroke: #038048; stroke-width: 1.0;"/><text fill="#000000" font-family="sans-serif" font-size="11" lengthAdjust="spacingAndGlyphs" textLength="87" x="187.5" y="187.9424">String(int[], int, int)</text><ellipse cx="178.5" cy="198.7773" fill="#84BE84" rx="3" ry="3" style="stroke: #038048; stroke-width: 1.0;"/><text fill="#000000" font-family="sans-serif" font-size="11" lengthAdjust="spacingAndGlyphs" textLength="114" x="187.5" y="201.7783">String(byte[], int, int, int)</text><ellipse cx="178.5" cy="212.6133" fill="#84BE84" rx="3" ry="3" style="stroke: #038048; stroke-width: 1.0;"/><text fill="#000000" font-family="sans-serif" font-size="11" lengthAdjust="spacingAndGlyphs" textLength="80" x="187.5" y="215.6143">String(byte[], int)</text><rect fill="#F24D5C" height="6" style="stroke: #C82930; stroke-width: 1.0;" width="6" x="175.5" y="223.4492"/><text fill="#000000" font-family="sans-serif" font-size="11" lengthAdjust="spacingAndGlyphs" text-decoration="underline" textLength="158" x="187.5" y="229.4502">void checkBounds(byte[], int, int)</text><line style="stroke: #000000; stroke-width: 1.0;" x1="187.5" x2="345.5" y1="231.4502" y2="231.4502"/><ellipse cx="178.5" cy="240.2852" fill="#84BE84" rx="3" ry="3" style="stroke: #038048; stroke-width: 1.0;"/><text fill="#000000" font-family="sans-serif" font-size="11" lengthAdjust="spacingAndGlyphs" textLength="131" x="187.5" y="243.2861">String(byte[], int, int, String)</text><ellipse cx="178.5" cy="254.1211" fill="#84BE84" rx="3" ry="3" style="stroke: #038048; stroke-width: 1.0;"/><text fill="#000000" font-family="sans-serif" font-size="11" lengthAdjust="spacingAndGlyphs" textLength="141" x="187.5" y="257.1221">String(byte[], int, int, Charset)</text><ellipse cx="178.5" cy="267.957" fill="#84BE84" rx="3" ry="3" style="stroke: #038048; stroke-width: 1.0;"/><text fill="#000000" font-family="sans-serif" font-size="11" lengthAdjust="spacingAndGlyphs" textLength="97" x="187.5" y="270.958">String(byte[], String)</text><ellipse cx="178.5" cy="281.793" fill="#84BE84" rx="3" ry="3" style="stroke: #038048; stroke-width: 1.0;"/><text fill="#000000" font-family="sans-serif" font-size="11" lengthAdjust="spacingAndGlyphs" textLength="107" x="187.5" y="284.7939">String(byte[], Charset)</text><ellipse cx="178.5" cy="295.6289" fill="#84BE84" rx="3" ry="3" style="stroke: #038048; stroke-width: 1.0;"/><text fill="#000000" font-family="sans-serif" font-size="11" lengthAdjust="spacingAndGlyphs" textLength="97" x="187.5" y="298.6299">String(byte[], int, int)</text><ellipse cx="178.5" cy="309.4648" fill="#84BE84" rx="3" ry="3" style="stroke: #038048; stroke-width: 1.0;"/><text fill="#000000" font-family="sans-serif" font-size="11" lengthAdjust="spacingAndGlyphs" textLength="63" x="187.5" y="312.4658">String(byte[])</text><ellipse cx="178.5" cy="323.3008" fill="#84BE84" rx="3" ry="3" style="stroke: #038048; stroke-width: 1.0;"/><text fill="#000000" font-family="sans-serif" font-size="11" lengthAdjust="spacingAndGlyphs" textLength="95" x="187.5" y="326.3018">String(StringBuffer)</text><ellipse cx="178.5" cy="337.1367" fill="#84BE84" rx="3" ry="3" style="stroke: #038048; stroke-width: 1.0;"/><text fill="#000000" font-family="sans-serif" font-size="11" lengthAdjust="spacingAndGlyphs" textLength="97" x="187.5" y="340.1377">String(StringBuilder)</text><text fill="#000000" font-family="sans-serif" font-size="11" lengthAdjust="spacingAndGlyphs" textLength="108" x="187.5" y="353.9736">String(char[], boolean)</text><ellipse cx="178.5" cy="364.8086" fill="#84BE84" rx="3" ry="3" style="stroke: #038048; stroke-width: 1.0;"/><text fill="#000000" font-family="sans-serif" font-size="11" lengthAdjust="spacingAndGlyphs" textLength="51" x="187.5" y="367.8096">int length()</text><ellipse cx="178.5" cy="378.6445" fill="#84BE84" rx="3" ry="3" style="stroke: #038048; stroke-width: 1.0;"/><text fill="#000000" font-family="sans-serif" font-size="11" lengthAdjust="spacingAndGlyphs" textLength="86" x="187.5" y="381.6455">boolean isEmpty()</text><ellipse cx="178.5" cy="392.4805" fill="#84BE84" rx="3" ry="3" style="stroke: #038048; stroke-width: 1.0;"/><text fill="#000000" font-family="sans-serif" font-size="11" lengthAdjust="spacingAndGlyphs" textLength="77" x="187.5" y="395.4814">char charAt(int)</text><ellipse cx="178.5" cy="406.3164" fill="#84BE84" rx="3" ry="3" style="stroke: #038048; stroke-width: 1.0;"/><text fill="#000000" font-family="sans-serif" font-size="11" lengthAdjust="spacingAndGlyphs" textLength="91" x="187.5" y="409.3174">int codePointAt(int)</text><ellipse cx="178.5" cy="420.1523" fill="#84BE84" rx="3" ry="3" style="stroke: #038048; stroke-width: 1.0;"/><text fill="#000000" font-family="sans-serif" font-size="11" lengthAdjust="spacingAndGlyphs" textLength="113" x="187.5" y="423.1533">int codePointBefore(int)</text><ellipse cx="178.5" cy="433.9883" fill="#84BE84" rx="3" ry="3" style="stroke: #038048; stroke-width: 1.0;"/><text fill="#000000" font-family="sans-serif" font-size="11" lengthAdjust="spacingAndGlyphs" textLength="125" x="187.5" y="436.9893">int codePointCount(int, int)</text><ellipse cx="178.5" cy="447.8242" fill="#84BE84" rx="3" ry="3" style="stroke: #038048; stroke-width: 1.0;"/><text fill="#000000" font-family="sans-serif" font-size="11" lengthAdjust="spacingAndGlyphs" textLength="146" x="187.5" y="450.8252">int offsetByCodePoints(int, int)</text><text fill="#000000" font-family="sans-serif" font-size="11" lengthAdjust="spacingAndGlyphs" textLength="120" x="187.5" y="464.6611">void getChars(char[], int)</text><ellipse cx="178.5" cy="475.4961" fill="#84BE84" rx="3" ry="3" style="stroke: #038048; stroke-width: 1.0;"/><text fill="#000000" font-family="sans-serif" font-size="11" lengthAdjust="spacingAndGlyphs" textLength="154" x="187.5" y="478.4971">void getChars(int, int, char[], int)</text><ellipse cx="178.5" cy="489.332" fill="#84BE84" rx="3" ry="3" style="stroke: #038048; stroke-width: 1.0;"/><text fill="#000000" font-family="sans-serif" font-size="11" lengthAdjust="spacingAndGlyphs" textLength="152" x="187.5" y="492.333">void getBytes(int, int, byte[], int)</text><ellipse cx="178.5" cy="503.168" fill="#84BE84" rx="3" ry="3" style="stroke: #038048; stroke-width: 1.0;"/><text fill="#000000" font-family="sans-serif" font-size="11" lengthAdjust="spacingAndGlyphs" textLength="109" x="187.5" y="506.1689">byte[] getBytes(String)</text><ellipse cx="178.5" cy="517.0039" fill="#84BE84" rx="3" ry="3" style="stroke: #038048; stroke-width: 1.0;"/><text fill="#000000" font-family="sans-serif" font-size="11" lengthAdjust="spacingAndGlyphs" textLength="119" x="187.5" y="520.0049">byte[] getBytes(Charset)</text><ellipse cx="178.5" cy="530.8398" fill="#84BE84" rx="3" ry="3" style="stroke: #038048; stroke-width: 1.0;"/><text fill="#000000" font-family="sans-serif" font-size="11" lengthAdjust="spacingAndGlyphs" textLength="81" x="187.5" y="533.8408">byte[] getBytes()</text><ellipse cx="178.5" cy="544.6758" fill="#84BE84" rx="3" ry="3" style="stroke: #038048; stroke-width: 1.0;"/><text fill="#000000" font-family="sans-serif" font-size="11" lengthAdjust="spacingAndGlyphs" textLength="112" x="187.5" y="547.6768">boolean equals(Object)</text><ellipse cx="178.5" cy="558.5117" fill="#84BE84" rx="3" ry="3" style="stroke: #038048; stroke-width: 1.0;"/><text fill="#000000" font-family="sans-serif" font-size="11" lengthAdjust="spacingAndGlyphs" textLength="176" x="187.5" y="561.5127">boolean contentEquals(StringBuffer)</text><rect fill="#F24D5C" height="6" style="stroke: #C82930; stroke-width: 1.0;" width="6" x="175.5" y="569.3477"/><text fill="#000000" font-family="sans-serif" font-size="11" lengthAdjust="spacingAndGlyphs" textLength="264" x="187.5" y="575.3486">boolean nonSyncContentEquals(AbstractStringBuilder)</text><ellipse cx="178.5" cy="586.1836" fill="#84BE84" rx="3" ry="3" style="stroke: #038048; stroke-width: 1.0;"/><text fill="#000000" font-family="sans-serif" font-size="11" lengthAdjust="spacingAndGlyphs" textLength="189" x="187.5" y="589.1846">boolean contentEquals(CharSequence)</text><ellipse cx="178.5" cy="600.0195" fill="#84BE84" rx="3" ry="3" style="stroke: #038048; stroke-width: 1.0;"/><text fill="#000000" font-family="sans-serif" font-size="11" lengthAdjust="spacingAndGlyphs" textLength="164" x="187.5" y="603.0205">boolean equalsIgnoreCase(String)</text><ellipse cx="178.5" cy="613.8555" fill="#84BE84" rx="3" ry="3" style="stroke: #038048; stroke-width: 1.0;"/><text fill="#000000" font-family="sans-serif" font-size="11" lengthAdjust="spacingAndGlyphs" textLength="104" x="187.5" y="616.8564">int compareTo(String)</text><ellipse cx="178.5" cy="627.6914" fill="#84BE84" rx="3" ry="3" style="stroke: #038048; stroke-width: 1.0;"/><text fill="#000000" font-family="sans-serif" font-size="11" lengthAdjust="spacingAndGlyphs" textLength="159" x="187.5" y="630.6924">int compareToIgnoreCase(String)</text><ellipse cx="178.5" cy="641.5273" fill="#84BE84" rx="3" ry="3" style="stroke: #038048; stroke-width: 1.0;"/><text fill="#000000" font-family="sans-serif" font-size="11" lengthAdjust="spacingAndGlyphs" textLength="199" x="187.5" y="644.5283">boolean regionMatches(int, String, int, int)</text><ellipse cx="178.5" cy="655.3633" fill="#84BE84" rx="3" ry="3" style="stroke: #038048; stroke-width: 1.0;"/><text fill="#000000" font-family="sans-serif" font-size="11" lengthAdjust="spacingAndGlyphs" textLength="243" x="187.5" y="658.3643">boolean regionMatches(boolean, int, String, int, int)</text><ellipse cx="178.5" cy="669.1992" fill="#84BE84" rx="3" ry="3" style="stroke: #038048; stroke-width: 1.0;"/><text fill="#000000" font-family="sans-serif" font-size="11" lengthAdjust="spacingAndGlyphs" textLength="143" x="187.5" y="672.2002">boolean startsWith(String, int)</text><ellipse cx="178.5" cy="683.0352" fill="#84BE84" rx="3" ry="3" style="stroke: #038048; stroke-width: 1.0;"/><text fill="#000000" font-family="sans-serif" font-size="11" lengthAdjust="spacingAndGlyphs" textLength="126" x="187.5" y="686.0361">boolean startsWith(String)</text><ellipse cx="178.5" cy="696.8711" fill="#84BE84" rx="3" ry="3" style="stroke: #038048; stroke-width: 1.0;"/><text fill="#000000" font-family="sans-serif" font-size="11" lengthAdjust="spacingAndGlyphs" textLength="122" x="187.5" y="699.8721">boolean endsWith(String)</text><ellipse cx="178.5" cy="710.707" fill="#84BE84" rx="3" ry="3" style="stroke: #038048; stroke-width: 1.0;"/><text fill="#000000" font-family="sans-serif" font-size="11" lengthAdjust="spacingAndGlyphs" textLength="71" x="187.5" y="713.708">int hashCode()</text><ellipse cx="178.5" cy="724.543" fill="#84BE84" rx="3" ry="3" style="stroke: #038048; stroke-width: 1.0;"/><text fill="#000000" font-family="sans-serif" font-size="11" lengthAdjust="spacingAndGlyphs" textLength="71" x="187.5" y="727.5439">int indexOf(int)</text><ellipse cx="178.5" cy="738.3789" fill="#84BE84" rx="3" ry="3" style="stroke: #038048; stroke-width: 1.0;"/><text fill="#000000" font-family="sans-serif" font-size="11" lengthAdjust="spacingAndGlyphs" textLength="88" x="187.5" y="741.3799">int indexOf(int, int)</text><rect fill="#F24D5C" height="6" style="stroke: #C82930; stroke-width: 1.0;" width="6" x="175.5" y="749.2148"/><text fill="#000000" font-family="sans-serif" font-size="11" lengthAdjust="spacingAndGlyphs" textLength="160" x="187.5" y="755.2158">int indexOfSupplementary(int, int)</text><ellipse cx="178.5" cy="766.0508" fill="#84BE84" rx="3" ry="3" style="stroke: #038048; stroke-width: 1.0;"/><text fill="#000000" font-family="sans-serif" font-size="11" lengthAdjust="spacingAndGlyphs" textLength="88" x="187.5" y="769.0518">int lastIndexOf(int)</text><ellipse cx="178.5" cy="779.8867" fill="#84BE84" rx="3" ry="3" style="stroke: #038048; stroke-width: 1.0;"/><text fill="#000000" font-family="sans-serif" font-size="11" lengthAdjust="spacingAndGlyphs" textLength="105" x="187.5" y="782.8877">int lastIndexOf(int, int)</text><rect fill="#F24D5C" height="6" style="stroke: #C82930; stroke-width: 1.0;" width="6" x="175.5" y="790.7227"/><text fill="#000000" font-family="sans-serif" font-size="11" lengthAdjust="spacingAndGlyphs" textLength="177" x="187.5" y="796.7236">int lastIndexOfSupplementary(int, int)</text><ellipse cx="178.5" cy="807.5586" fill="#84BE84" rx="3" ry="3" style="stroke: #038048; stroke-width: 1.0;"/><text fill="#000000" font-family="sans-serif" font-size="11" lengthAdjust="spacingAndGlyphs" textLength="88" x="187.5" y="810.5596">int indexOf(String)</text><ellipse cx="178.5" cy="821.3945" fill="#84BE84" rx="3" ry="3" style="stroke: #038048; stroke-width: 1.0;"/><text fill="#000000" font-family="sans-serif" font-size="11" lengthAdjust="spacingAndGlyphs" textLength="105" x="187.5" y="824.3955">int indexOf(String, int)</text><text fill="#000000" font-family="sans-serif" font-size="11" lengthAdjust="spacingAndGlyphs" text-decoration="underline" textLength="173" x="187.5" y="838.2314">int indexOf(char[], int, int, String, int)</text><line style="stroke: #000000; stroke-width: 1.0;" x1="187.5" x2="360.5" y1="840.2314" y2="840.2314"/><text fill="#000000" font-family="sans-serif" font-size="11" lengthAdjust="spacingAndGlyphs" text-decoration="underline" textLength="207" x="187.5" y="852.0674">int indexOf(char[], int, int, char[], int, int, int)</text><line style="stroke: #000000; stroke-width: 1.0;" x1="187.5" x2="394.5" y1="854.0674" y2="854.0674"/><ellipse cx="178.5" cy="862.9023" fill="#84BE84" rx="3" ry="3" style="stroke: #038048; stroke-width: 1.0;"/><text fill="#000000" font-family="sans-serif" font-size="11" lengthAdjust="spacingAndGlyphs" textLength="105" x="187.5" y="865.9033">int lastIndexOf(String)</text><ellipse cx="178.5" cy="876.7383" fill="#84BE84" rx="3" ry="3" style="stroke: #038048; stroke-width: 1.0;"/><text fill="#000000" font-family="sans-serif" font-size="11" lengthAdjust="spacingAndGlyphs" textLength="122" x="187.5" y="879.7393">int lastIndexOf(String, int)</text><text fill="#000000" font-family="sans-serif" font-size="11" lengthAdjust="spacingAndGlyphs" text-decoration="underline" textLength="190" x="187.5" y="893.5752">int lastIndexOf(char[], int, int, String, int)</text><line style="stroke: #000000; stroke-width: 1.0;" x1="187.5" x2="377.5" y1="895.5752" y2="895.5752"/><text fill="#000000" font-family="sans-serif" font-size="11" lengthAdjust="spacingAndGlyphs" text-decoration="underline" textLength="224" x="187.5" y="907.4111">int lastIndexOf(char[], int, int, char[], int, int, int)</text><line style="stroke: #000000; stroke-width: 1.0;" x1="187.5" x2="411.5" y1="909.4111" y2="909.4111"/><ellipse cx="178.5" cy="918.2461" fill="#84BE84" rx="3" ry="3" style="stroke: #038048; stroke-width: 1.0;"/><text fill="#000000" font-family="sans-serif" font-size="11" lengthAdjust="spacingAndGlyphs" textLength="95" x="187.5" y="921.2471">String substring(int)</text><ellipse cx="178.5" cy="932.082" fill="#84BE84" rx="3" ry="3" style="stroke: #038048; stroke-width: 1.0;"/><text fill="#000000" font-family="sans-serif" font-size="11" lengthAdjust="spacingAndGlyphs" textLength="112" x="187.5" y="935.083">String substring(int, int)</text><ellipse cx="178.5" cy="945.918" fill="#84BE84" rx="3" ry="3" style="stroke: #038048; stroke-width: 1.0;"/><text fill="#000000" font-family="sans-serif" font-size="11" lengthAdjust="spacingAndGlyphs" textLength="178" x="187.5" y="948.9189">CharSequence subSequence(int, int)</text><ellipse cx="178.5" cy="959.7539" fill="#84BE84" rx="3" ry="3" style="stroke: #038048; stroke-width: 1.0;"/><text fill="#000000" font-family="sans-serif" font-size="11" lengthAdjust="spacingAndGlyphs" textLength="100" x="187.5" y="962.7549">String concat(String)</text><ellipse cx="178.5" cy="973.5898" fill="#84BE84" rx="3" ry="3" style="stroke: #038048; stroke-width: 1.0;"/><text fill="#000000" font-family="sans-serif" font-size="11" lengthAdjust="spacingAndGlyphs" textLength="125" x="187.5" y="976.5908">String replace(char, char)</text><ellipse cx="178.5" cy="987.4258" fill="#84BE84" rx="3" ry="3" style="stroke: #038048; stroke-width: 1.0;"/><text fill="#000000" font-family="sans-serif" font-size="11" lengthAdjust="spacingAndGlyphs" textLength="118" x="187.5" y="990.4268">boolean matches(String)</text><ellipse cx="178.5" cy="1001.2617" fill="#84BE84" rx="3" ry="3" style="stroke: #038048; stroke-width: 1.0;"/><text fill="#000000" font-family="sans-serif" font-size="11" lengthAdjust="spacingAndGlyphs" textLength="162" x="187.5" y="1004.2627">boolean contains(CharSequence)</text><ellipse cx="178.5" cy="1015.0977" fill="#84BE84" rx="3" ry="3" style="stroke: #038048; stroke-width: 1.0;"/><text fill="#000000" font-family="sans-serif" font-size="11" lengthAdjust="spacingAndGlyphs" textLength="158" x="187.5" y="1018.0986">String replaceFirst(String, String)</text><ellipse cx="178.5" cy="1028.9336" fill="#84BE84" rx="3" ry="3" style="stroke: #038048; stroke-width: 1.0;"/><text fill="#000000" font-family="sans-serif" font-size="11" lengthAdjust="spacingAndGlyphs" textLength="149" x="187.5" y="1031.9346">String replaceAll(String, String)</text><ellipse cx="178.5" cy="1042.7695" fill="#84BE84" rx="3" ry="3" style="stroke: #038048; stroke-width: 1.0;"/><text fill="#000000" font-family="sans-serif" font-size="11" lengthAdjust="spacingAndGlyphs" textLength="225" x="187.5" y="1045.7705">String replace(CharSequence, CharSequence)</text><ellipse cx="178.5" cy="1056.6055" fill="#84BE84" rx="3" ry="3" style="stroke: #038048; stroke-width: 1.0;"/><text fill="#000000" font-family="sans-serif" font-size="11" lengthAdjust="spacingAndGlyphs" textLength="109" x="187.5" y="1059.6064">String[] split(String, int)</text><ellipse cx="178.5" cy="1070.4414" fill="#84BE84" rx="3" ry="3" style="stroke: #038048; stroke-width: 1.0;"/><text fill="#000000" font-family="sans-serif" font-size="11" lengthAdjust="spacingAndGlyphs" textLength="92" x="187.5" y="1073.4424">String[] split(String)</text><ellipse cx="178.5" cy="1084.2773" fill="#84BE84" rx="3" ry="3" style="stroke: #038048; stroke-width: 1.0;"/><text fill="#000000" font-family="sans-serif" font-size="11" lengthAdjust="spacingAndGlyphs" text-decoration="underline" textLength="211" x="187.5" y="1087.2783">String join(CharSequence, CharSequence[])</text><line style="stroke: #000000; stroke-width: 1.0;" x1="187.5" x2="398.5" y1="1089.2783" y2="1089.2783"/><ellipse cx="178.5" cy="1098.1133" fill="#84BE84" rx="3" ry="3" style="stroke: #038048; stroke-width: 1.0;"/><text fill="#000000" font-family="sans-serif" font-size="11" lengthAdjust="spacingAndGlyphs" text-decoration="underline" textLength="168" x="187.5" y="1101.1143">String join(CharSequence, Iterable)</text><line style="stroke: #000000; stroke-width: 1.0;" x1="187.5" x2="355.5" y1="1103.1143" y2="1103.1143"/><ellipse cx="178.5" cy="1111.9492" fill="#84BE84" rx="3" ry="3" style="stroke: #038048; stroke-width: 1.0;"/><text fill="#000000" font-family="sans-serif" font-size="11" lengthAdjust="spacingAndGlyphs" textLength="137" x="187.5" y="1114.9502">String toLowerCase(Locale)</text><ellipse cx="178.5" cy="1125.7852" fill="#84BE84" rx="3" ry="3" style="stroke: #038048; stroke-width: 1.0;"/><text fill="#000000" font-family="sans-serif" font-size="11" lengthAdjust="spacingAndGlyphs" textLength="105" x="187.5" y="1128.7861">String toLowerCase()</text><ellipse cx="178.5" cy="1139.6211" fill="#84BE84" rx="3" ry="3" style="stroke: #038048; stroke-width: 1.0;"/><text fill="#000000" font-family="sans-serif" font-size="11" lengthAdjust="spacingAndGlyphs" textLength="134" x="187.5" y="1142.6221">String toUpperCase(Locale)</text><ellipse cx="178.5" cy="1153.457" fill="#84BE84" rx="3" ry="3" style="stroke: #038048; stroke-width: 1.0;"/><text fill="#000000" font-family="sans-serif" font-size="11" lengthAdjust="spacingAndGlyphs" textLength="102" x="187.5" y="1156.458">String toUpperCase()</text><ellipse cx="178.5" cy="1167.293" fill="#84BE84" rx="3" ry="3" style="stroke: #038048; stroke-width: 1.0;"/><text fill="#000000" font-family="sans-serif" font-size="11" lengthAdjust="spacingAndGlyphs" textLength="56" x="187.5" y="1170.2939">String trim()</text><ellipse cx="178.5" cy="1181.1289" fill="#84BE84" rx="3" ry="3" style="stroke: #038048; stroke-width: 1.0;"/><text fill="#000000" font-family="sans-serif" font-size="11" lengthAdjust="spacingAndGlyphs" textLength="76" x="187.5" y="1184.1299">String toString()</text><ellipse cx="178.5" cy="1194.9648" fill="#84BE84" rx="3" ry="3" style="stroke: #038048; stroke-width: 1.0;"/><text fill="#000000" font-family="sans-serif" font-size="11" lengthAdjust="spacingAndGlyphs" textLength="99" x="187.5" y="1197.9658">char[] toCharArray()</text><ellipse cx="178.5" cy="1208.8008" fill="#84BE84" rx="3" ry="3" style="stroke: #038048; stroke-width: 1.0;"/><text fill="#000000" font-family="sans-serif" font-size="11" lengthAdjust="spacingAndGlyphs" text-decoration="underline" textLength="141" x="187.5" y="1211.8018">String format(String, Object[])</text><line style="stroke: #000000; stroke-width: 1.0;" x1="187.5" x2="328.5" y1="1213.8018" y2="1213.8018"/><ellipse cx="178.5" cy="1222.6367" fill="#84BE84" rx="3" ry="3" style="stroke: #038048; stroke-width: 1.0;"/><text fill="#000000" font-family="sans-serif" font-size="11" lengthAdjust="spacingAndGlyphs" text-decoration="underline" textLength="179" x="187.5" y="1225.6377">String format(Locale, String, Object[])</text><line style="stroke: #000000; stroke-width: 1.0;" x1="187.5" x2="366.5" y1="1227.6377" y2="1227.6377"/><ellipse cx="178.5" cy="1236.4727" fill="#84BE84" rx="3" ry="3" style="stroke: #038048; stroke-width: 1.0;"/><text fill="#000000" font-family="sans-serif" font-size="11" lengthAdjust="spacingAndGlyphs" text-decoration="underline" textLength="108" x="187.5" y="1239.4736">String valueOf(Object)</text><line style="stroke: #000000; stroke-width: 1.0;" x1="187.5" x2="295.5" y1="1241.4736" y2="1241.4736"/><ellipse cx="178.5" cy="1250.3086" fill="#84BE84" rx="3" ry="3" style="stroke: #038048; stroke-width: 1.0;"/><text fill="#000000" font-family="sans-serif" font-size="11" lengthAdjust="spacingAndGlyphs" text-decoration="underline" textLength="105" x="187.5" y="1253.3096">String valueOf(char[])</text><line style="stroke: #000000; stroke-width: 1.0;" x1="187.5" x2="292.5" y1="1255.3096" y2="1255.3096"/><ellipse cx="178.5" cy="1264.1445" fill="#84BE84" rx="3" ry="3" style="stroke: #038048; stroke-width: 1.0;"/><text fill="#000000" font-family="sans-serif" font-size="11" lengthAdjust="spacingAndGlyphs" text-decoration="underline" textLength="139" x="187.5" y="1267.1455">String valueOf(char[], int, int)</text><line style="stroke: #000000; stroke-width: 1.0;" x1="187.5" x2="326.5" y1="1269.1455" y2="1269.1455"/><ellipse cx="178.5" cy="1277.9805" fill="#84BE84" rx="3" ry="3" style="stroke: #038048; stroke-width: 1.0;"/><text fill="#000000" font-family="sans-serif" font-size="11" lengthAdjust="spacingAndGlyphs" text-decoration="underline" textLength="165" x="187.5" y="1280.9814">String copyValueOf(char[], int, int)</text><line style="stroke: #000000; stroke-width: 1.0;" x1="187.5" x2="352.5" y1="1282.9814" y2="1282.9814"/><ellipse cx="178.5" cy="1291.8164" fill="#84BE84" rx="3" ry="3" style="stroke: #038048; stroke-width: 1.0;"/><text fill="#000000" font-family="sans-serif" font-size="11" lengthAdjust="spacingAndGlyphs" text-decoration="underline" textLength="131" x="187.5" y="1294.8174">String copyValueOf(char[])</text><line style="stroke: #000000; stroke-width: 1.0;" x1="187.5" x2="318.5" y1="1296.8174" y2="1296.8174"/><ellipse cx="178.5" cy="1305.6523" fill="#84BE84" rx="3" ry="3" style="stroke: #038048; stroke-width: 1.0;"/><text fill="#000000" font-family="sans-serif" font-size="11" lengthAdjust="spacingAndGlyphs" text-decoration="underline" textLength="115" x="187.5" y="1308.6533">String valueOf(boolean)</text><line style="stroke: #000000; stroke-width: 1.0;" x1="187.5" x2="302.5" y1="1310.6533" y2="1310.6533"/><ellipse cx="178.5" cy="1319.4883" fill="#84BE84" rx="3" ry="3" style="stroke: #038048; stroke-width: 1.0;"/><text fill="#000000" font-family="sans-serif" font-size="11" lengthAdjust="spacingAndGlyphs" text-decoration="underline" textLength="99" x="187.5" y="1322.4893">String valueOf(char)</text><line style="stroke: #000000; stroke-width: 1.0;" x1="187.5" x2="286.5" y1="1324.4893" y2="1324.4893"/><ellipse cx="178.5" cy="1333.3242" fill="#84BE84" rx="3" ry="3" style="stroke: #038048; stroke-width: 1.0;"/><text fill="#000000" font-family="sans-serif" font-size="11" lengthAdjust="spacingAndGlyphs" text-decoration="underline" textLength="88" x="187.5" y="1336.3252">String valueOf(int)</text><line style="stroke: #000000; stroke-width: 1.0;" x1="187.5" x2="275.5" y1="1338.3252" y2="1338.3252"/><ellipse cx="178.5" cy="1347.1602" fill="#84BE84" rx="3" ry="3" style="stroke: #038048; stroke-width: 1.0;"/><text fill="#000000" font-family="sans-serif" font-size="11" lengthAdjust="spacingAndGlyphs" text-decoration="underline" textLength="97" x="187.5" y="1350.1611">String valueOf(long)</text><line style="stroke: #000000; stroke-width: 1.0;" x1="187.5" x2="284.5" y1="1352.1611" y2="1352.1611"/><ellipse cx="178.5" cy="1360.9961" fill="#84BE84" rx="3" ry="3" style="stroke: #038048; stroke-width: 1.0;"/><text fill="#000000" font-family="sans-serif" font-size="11" lengthAdjust="spacingAndGlyphs" text-decoration="underline" textLength="98" x="187.5" y="1363.9971">String valueOf(float)</text><line style="stroke: #000000; stroke-width: 1.0;" x1="187.5" x2="285.5" y1="1365.9971" y2="1365.9971"/><ellipse cx="178.5" cy="1374.832" fill="#84BE84" rx="3" ry="3" style="stroke: #038048; stroke-width: 1.0;"/><text fill="#000000" font-family="sans-serif" font-size="11" lengthAdjust="spacingAndGlyphs" text-decoration="underline" textLength="109" x="187.5" y="1377.833">String valueOf(double)</text><line style="stroke: #000000; stroke-width: 1.0;" x1="187.5" x2="296.5" y1="1379.833" y2="1379.833"/><ellipse cx="178.5" cy="1388.668" fill="#84BE84" rx="3" ry="3" style="stroke: #038048; stroke-width: 1.0;"/><text fill="#000000" font-family="sans-serif" font-size="11" lengthAdjust="spacingAndGlyphs" textLength="66" x="187.5" y="1391.6689">String intern()</text><ellipse cx="178.5" cy="1402.5039" fill="#84BE84" rx="3" ry="3" style="stroke: #038048; stroke-width: 1.0;"/><text fill="#000000" font-family="sans-serif" font-size="11" lengthAdjust="spacingAndGlyphs" textLength="107" x="187.5" y="1405.5049">int compareTo(Object)</text><text fill="#000000" font-family="sans-serif" font-size="11" lengthAdjust="spacingAndGlyphs" text-decoration="underline" textLength="64" x="187.5" y="1419.3408">void &lt;clinit&gt;()</text><line style="stroke: #000000; stroke-width: 1.0;" x1="187.5" x2="251.5" y1="1421.3408" y2="1421.3408"/><!--class Serializable--><rect fill="#FEFECE" filter="url(#f1oaphpqi1ywtg)" height="48" id="Serializable" style="stroke: #A80036; stroke-width: 1.5;" width="99" x="6" y="1541.5"/><ellipse cx="21" cy="1557.5" fill="#B4A7E5" rx="11" ry="11" style="stroke: #A80036; stroke-width: 1.0;"/><path d="M21.9531,1554.1406 L21.9531,1560.7969 L23.6719,1560.7969 Q24.2813,1560.7969 24.5469,1561.0313 Q24.8125,1561.2656 24.8125,1561.6563 Q24.8125,1562.0313 24.5469,1562.2656 Q24.2813,1562.5 23.6719,1562.5 L18.5313,1562.5 Q17.9219,1562.5 17.6563,1562.2656 Q17.3906,1562.0313 17.3906,1561.6406 Q17.3906,1561.2656 17.6563,1561.0313 Q17.9219,1560.7969 18.5313,1560.7969 L20.25,1560.7969 L20.25,1554.1406 L18.5313,1554.1406 Q17.9219,1554.1406 17.6563,1553.9063 Q17.3906,1553.6719 17.3906,1553.2813 Q17.3906,1552.9063 17.6563,1552.6719 Q17.9219,1552.4375 18.5313,1552.4375 L23.6719,1552.4375 Q24.2813,1552.4375 24.5469,1552.6719 Q24.8125,1552.9063 24.8125,1553.2813 Q24.8125,1553.6719 24.5469,1553.9063 Q24.2813,1554.1406 23.6719,1554.1406 L21.9531,1554.1406 Z "/><text fill="#000000" font-family="sans-serif" font-size="12" font-style="italic" lengthAdjust="spacingAndGlyphs" textLength="67" x="35" y="1562.4102">Serializable</text><line style="stroke: #A80036; stroke-width: 1.5;" x1="7" x2="104" y1="1573.5" y2="1573.5"/><line style="stroke: #A80036; stroke-width: 1.5;" x1="7" x2="104" y1="1581.5" y2="1581.5"/><!--class Comparable--><rect fill="#FEFECE" filter="url(#f1oaphpqi1ywtg)" height="61.8359" id="Comparable" style="stroke: #A80036; stroke-width: 1.5;" width="133" x="140" y="1534.5"/><ellipse cx="168.95" cy="1550.5" fill="#B4A7E5" rx="11" ry="11" style="stroke: #A80036; stroke-width: 1.0;"/><path d="M169.9031,1547.1406 L169.9031,1553.7969 L171.6219,1553.7969 Q172.2313,1553.7969 172.4969,1554.0313 Q172.7625,1554.2656 172.7625,1554.6563 Q172.7625,1555.0313 172.4969,1555.2656 Q172.2313,1555.5 171.6219,1555.5 L166.4813,1555.5 Q165.8719,1555.5 165.6063,1555.2656 Q165.3406,1555.0313 165.3406,1554.6406 Q165.3406,1554.2656 165.6063,1554.0313 Q165.8719,1553.7969 166.4813,1553.7969 L168.2,1553.7969 L168.2,1547.1406 L166.4813,1547.1406 Q165.8719,1547.1406 165.6063,1546.9063 Q165.3406,1546.6719 165.3406,1546.2813 Q165.3406,1545.9063 165.6063,1545.6719 Q165.8719,1545.4375 166.4813,1545.4375 L171.6219,1545.4375 Q172.2313,1545.4375 172.4969,1545.6719 Q172.7625,1545.9063 172.7625,1546.2813 Q172.7625,1546.6719 172.4969,1546.9063 Q172.2313,1547.1406 171.6219,1547.1406 L169.9031,1547.1406 Z "/><text fill="#000000" font-family="sans-serif" font-size="12" font-style="italic" lengthAdjust="spacingAndGlyphs" textLength="70" x="186.05" y="1555.4102">Comparable</text><line style="stroke: #A80036; stroke-width: 1.5;" x1="141" x2="272" y1="1566.5" y2="1566.5"/><line style="stroke: #A80036; stroke-width: 1.5;" x1="141" x2="272" y1="1574.5" y2="1574.5"/><ellipse cx="151" cy="1586.918" fill="#84BE84" rx="3" ry="3" style="stroke: #038048; stroke-width: 1.0;"/><text fill="#000000" font-family="sans-serif" font-size="11" lengthAdjust="spacingAndGlyphs" textLength="107" x="160" y="1589.9189">int compareTo(Object)</text><!--class CharSequence--><rect fill="#FEFECE" filter="url(#f1oaphpqi1ywtg)" height="158.6875" id="CharSequence" style="stroke: #A80036; stroke-width: 1.5;" width="220" x="308.5" y="1486"/><ellipse cx="372.75" cy="1502" fill="#B4A7E5" rx="11" ry="11" style="stroke: #A80036; stroke-width: 1.0;"/><path d="M373.7031,1498.6406 L373.7031,1505.2969 L375.4219,1505.2969 Q376.0313,1505.2969 376.2969,1505.5313 Q376.5625,1505.7656 376.5625,1506.1563 Q376.5625,1506.5313 376.2969,1506.7656 Q376.0313,1507 375.4219,1507 L370.2813,1507 Q369.6719,1507 369.4063,1506.7656 Q369.1406,1506.5313 369.1406,1506.1406 Q369.1406,1505.7656 369.4063,1505.5313 Q369.6719,1505.2969 370.2813,1505.2969 L372,1505.2969 L372,1498.6406 L370.2813,1498.6406 Q369.6719,1498.6406 369.4063,1498.4063 Q369.1406,1498.1719 369.1406,1497.7813 Q369.1406,1497.4063 369.4063,1497.1719 Q369.6719,1496.9375 370.2813,1496.9375 L375.4219,1496.9375 Q376.0313,1496.9375 376.2969,1497.1719 Q376.5625,1497.4063 376.5625,1497.7813 Q376.5625,1498.1719 376.2969,1498.4063 Q376.0313,1498.6406 375.4219,1498.6406 L373.7031,1498.6406 Z "/><text fill="#000000" font-family="sans-serif" font-size="12" font-style="italic" lengthAdjust="spacingAndGlyphs" textLength="83" x="393.25" y="1506.9102">CharSequence</text><line style="stroke: #A80036; stroke-width: 1.5;" x1="309.5" x2="527.5" y1="1518" y2="1518"/><line style="stroke: #A80036; stroke-width: 1.5;" x1="309.5" x2="527.5" y1="1526" y2="1526"/><ellipse cx="319.5" cy="1538.418" fill="#84BE84" rx="3" ry="3" style="stroke: #038048; stroke-width: 1.0;"/><text fill="#000000" font-family="sans-serif" font-size="11" lengthAdjust="spacingAndGlyphs" textLength="51" x="328.5" y="1541.4189">int length()</text><ellipse cx="319.5" cy="1552.2539" fill="#84BE84" rx="3" ry="3" style="stroke: #038048; stroke-width: 1.0;"/><text fill="#000000" font-family="sans-serif" font-size="11" lengthAdjust="spacingAndGlyphs" textLength="77" x="328.5" y="1555.2549">char charAt(int)</text><ellipse cx="319.5" cy="1566.0898" fill="#84BE84" rx="3" ry="3" style="stroke: #038048; stroke-width: 1.0;"/><text fill="#000000" font-family="sans-serif" font-size="11" lengthAdjust="spacingAndGlyphs" textLength="178" x="328.5" y="1569.0908">CharSequence subSequence(int, int)</text><ellipse cx="319.5" cy="1579.9258" fill="#84BE84" rx="3" ry="3" style="stroke: #038048; stroke-width: 1.0;"/><text fill="#000000" font-family="sans-serif" font-size="11" lengthAdjust="spacingAndGlyphs" textLength="76" x="328.5" y="1582.9268">String toString()</text><ellipse cx="319.5" cy="1593.7617" fill="#84BE84" rx="3" ry="3" style="stroke: #038048; stroke-width: 1.0;"/><text fill="#000000" font-family="sans-serif" font-size="11" lengthAdjust="spacingAndGlyphs" textLength="84" x="328.5" y="1596.7627">IntStream chars()</text><ellipse cx="319.5" cy="1607.5977" fill="#84BE84" rx="3" ry="3" style="stroke: #038048; stroke-width: 1.0;"/><text fill="#000000" font-family="sans-serif" font-size="11" lengthAdjust="spacingAndGlyphs" textLength="109" x="328.5" y="1610.5986">IntStream codePoints()</text><rect fill="#F24D5C" height="6" style="stroke: #C82930; stroke-width: 1.0;" width="6" x="316.5" y="1618.4336"/><text fill="#000000" font-family="sans-serif" font-size="11" lengthAdjust="spacingAndGlyphs" textLength="194" x="328.5" y="1624.4346">Spliterator$OfInt lambda$codePoints$1()</text><rect fill="#F24D5C" height="6" style="stroke: #C82930; stroke-width: 1.0;" width="6" x="316.5" y="1632.2695"/><text fill="#000000" font-family="sans-serif" font-size="11" lengthAdjust="spacingAndGlyphs" textLength="169" x="328.5" y="1638.2705">Spliterator$OfInt lambda$chars$0()</text><!--class Object--><rect fill="#FEFECE" filter="url(#f1oaphpqi1ywtg)" height="241.7031" id="Object" style="stroke: #A80036; stroke-width: 1.5;" width="138" x="243.5" y="1705"/><ellipse cx="290.75" cy="1721" fill="#ADD1B2" rx="11" ry="11" style="stroke: #A80036; stroke-width: 1.0;"/><path d="M293.5156,1716.875 Q293.6719,1716.6563 293.8594,1716.5469 Q294.0469,1716.4375 294.2656,1716.4375 Q294.6406,1716.4375 294.875,1716.6953 Q295.1094,1716.9531 295.1094,1717.5625 L295.1094,1719.0156 Q295.1094,1719.625 294.875,1719.8906 Q294.6406,1720.1563 294.2656,1720.1563 Q293.9219,1720.1563 293.7188,1719.9531 Q293.5156,1719.7656 293.4063,1719.25 Q293.3594,1718.8906 293.1719,1718.7031 Q292.8438,1718.3281 292.2344,1718.1094 Q291.625,1717.8906 291,1717.8906 Q290.2344,1717.8906 289.6016,1718.2188 Q288.9688,1718.5469 288.4766,1719.2969 Q287.9844,1720.0469 287.9844,1721.0781 L287.9844,1722.1719 Q287.9844,1723.4063 288.875,1724.2266 Q289.7656,1725.0469 291.3594,1725.0469 Q292.2969,1725.0469 292.9531,1724.7969 Q293.3438,1724.6406 293.7656,1724.2031 Q294.0313,1723.9375 294.1797,1723.8594 Q294.3281,1723.7813 294.5313,1723.7813 Q294.8594,1723.7813 295.1172,1724.0391 Q295.375,1724.2969 295.375,1724.6406 Q295.375,1724.9844 295.0313,1725.3906 Q294.5313,1725.9688 293.7344,1726.2969 Q292.6563,1726.75 291.3594,1726.75 Q289.8438,1726.75 288.6406,1726.125 Q287.6563,1725.625 286.9688,1724.5547 Q286.2813,1723.4844 286.2813,1722.2031 L286.2813,1721.0469 Q286.2813,1719.7188 286.8984,1718.5703 Q287.5156,1717.4219 288.6094,1716.8047 Q289.7031,1716.1875 290.9375,1716.1875 Q291.6719,1716.1875 292.3203,1716.3516 Q292.9688,1716.5156 293.5156,1716.875 Z "/><text fill="#000000" font-family="sans-serif" font-size="12" lengthAdjust="spacingAndGlyphs" textLength="35" x="311.25" y="1725.9102">Object</text><line style="stroke: #A80036; stroke-width: 1.5;" x1="244.5" x2="380.5" y1="1737" y2="1737"/><line style="stroke: #A80036; stroke-width: 1.5;" x1="244.5" x2="380.5" y1="1745" y2="1745"/><ellipse cx="254.5" cy="1757.418" fill="#84BE84" rx="3" ry="3" style="stroke: #038048; stroke-width: 1.0;"/><text fill="#000000" font-family="sans-serif" font-size="11" lengthAdjust="spacingAndGlyphs" textLength="39" x="263.5" y="1760.4189">Object()</text><rect fill="#F24D5C" height="6" style="stroke: #C82930; stroke-width: 1.0;" width="6" x="251.5" y="1768.2539"/><text fill="#000000" font-family="sans-serif" font-size="11" lengthAdjust="spacingAndGlyphs" text-decoration="underline" textLength="104" x="263.5" y="1774.2549">void registerNatives()</text><line style="stroke: #000000; stroke-width: 1.0;" x1="263.5" x2="367.5" y1="1776.2549" y2="1776.2549"/><ellipse cx="254.5" cy="1785.0898" fill="#84BE84" rx="3" ry="3" style="stroke: #038048; stroke-width: 1.0;"/><text fill="#000000" font-family="sans-serif" font-size="11" lengthAdjust="spacingAndGlyphs" textLength="80" x="263.5" y="1788.0908">Class getClass()</text><ellipse cx="254.5" cy="1798.9258" fill="#84BE84" rx="3" ry="3" style="stroke: #038048; stroke-width: 1.0;"/><text fill="#000000" font-family="sans-serif" font-size="11" lengthAdjust="spacingAndGlyphs" textLength="71" x="263.5" y="1801.9268">int hashCode()</text><ellipse cx="254.5" cy="1812.7617" fill="#84BE84" rx="3" ry="3" style="stroke: #038048; stroke-width: 1.0;"/><text fill="#000000" font-family="sans-serif" font-size="11" lengthAdjust="spacingAndGlyphs" textLength="112" x="263.5" y="1815.7627">boolean equals(Object)</text><polygon fill="#FFFF44" points="254.5,1821.5977,258.5,1825.5977,254.5,1829.5977,250.5,1825.5977" style="stroke: #B38D22; stroke-width: 1.0;"/><text fill="#000000" font-family="sans-serif" font-size="11" lengthAdjust="spacingAndGlyphs" textLength="68" x="263.5" y="1829.5986">Object clone()</text><ellipse cx="254.5" cy="1840.4336" fill="#84BE84" rx="3" ry="3" style="stroke: #038048; stroke-width: 1.0;"/><text fill="#000000" font-family="sans-serif" font-size="11" lengthAdjust="spacingAndGlyphs" textLength="76" x="263.5" y="1843.4346">String toString()</text><ellipse cx="254.5" cy="1854.2695" fill="#84BE84" rx="3" ry="3" style="stroke: #038048; stroke-width: 1.0;"/><text fill="#000000" font-family="sans-serif" font-size="11" lengthAdjust="spacingAndGlyphs" textLength="58" x="263.5" y="1857.2705">void notify()</text><ellipse cx="254.5" cy="1868.1055" fill="#84BE84" rx="3" ry="3" style="stroke: #038048; stroke-width: 1.0;"/><text fill="#000000" font-family="sans-serif" font-size="11" lengthAdjust="spacingAndGlyphs" textLength="70" x="263.5" y="1871.1064">void notifyAll()</text><ellipse cx="254.5" cy="1881.9414" fill="#84BE84" rx="3" ry="3" style="stroke: #038048; stroke-width: 1.0;"/><text fill="#000000" font-family="sans-serif" font-size="11" lengthAdjust="spacingAndGlyphs" textLength="72" x="263.5" y="1884.9424">void wait(long)</text><ellipse cx="254.5" cy="1895.7773" fill="#84BE84" rx="3" ry="3" style="stroke: #038048; stroke-width: 1.0;"/><text fill="#000000" font-family="sans-serif" font-size="11" lengthAdjust="spacingAndGlyphs" textLength="89" x="263.5" y="1898.7783">void wait(long, int)</text><ellipse cx="254.5" cy="1909.6133" fill="#84BE84" rx="3" ry="3" style="stroke: #038048; stroke-width: 1.0;"/><text fill="#000000" font-family="sans-serif" font-size="11" lengthAdjust="spacingAndGlyphs" textLength="52" x="263.5" y="1912.6143">void wait()</text><polygon fill="#FFFF44" points="254.5,1918.4492,258.5,1922.4492,254.5,1926.4492,250.5,1922.4492" style="stroke: #B38D22; stroke-width: 1.0;"/><text fill="#000000" font-family="sans-serif" font-size="11" lengthAdjust="spacingAndGlyphs" textLength="65" x="263.5" y="1926.4502">void finalize()</text><text fill="#000000" font-family="sans-serif" font-size="11" lengthAdjust="spacingAndGlyphs" text-decoration="underline" textLength="64" x="263.5" y="1940.2861">void &lt;clinit&gt;()</text><line style="stroke: #000000; stroke-width: 1.0;" x1="263.5" x2="327.5" y1="1942.2861" y2="1942.2861"/><!--link String to Serializable--><path d="M167.476,1195.675 C126.546,1330.491 87.8896,1457.816 68.4922,1521.707 " fill="none" id="String-Serializable" style="stroke: #A80036; stroke-width: 1.0; stroke-dasharray: 7.0,7.0;"/><polygon fill="none" points="75.0776,1524.112,62.5693,1541.215,61.6814,1520.044,75.0776,1524.112" style="stroke: #A80036; stroke-width: 1.0;"/><!--link String to Comparable--><path d="M223.826,1426.139 C219.44,1461.161 215.663,1491.326 212.765,1514.47 " fill="none" id="String-Comparable" style="stroke: #A80036; stroke-width: 1.0; stroke-dasharray: 7.0,7.0;"/><polygon fill="none" points="219.695,1515.463,210.264,1534.438,205.804,1513.723,219.695,1515.463" style="stroke: #A80036; stroke-width: 1.0;"/><!--link String to CharSequence--><path d="M401.174,1426.139 C402.937,1440.217 404.602,1453.511 406.151,1465.879 " fill="none" id="String-CharSequence" style="stroke: #A80036; stroke-width: 1.0; stroke-dasharray: 7.0,7.0;"/><polygon fill="none" points="413.105,1465.08,408.644,1485.795,399.214,1466.82,413.105,1465.08" style="stroke: #A80036; stroke-width: 1.0;"/><!--link String to Object--><path d="M457.719,951.201 C558.232,1144.56 655.937,1422.749 546.5,1645 C515.885,1707.174 452.33,1753.885 399.173,1784.123 " fill="none" id="String-Object" style="stroke: #A80036; stroke-width: 1.0;"/><polygon fill="none" points="402.51,1790.276,381.607,1793.745,395.785,1777.998,402.51,1790.276" style="stroke: #A80036; stroke-width: 1.0;"/><!--link Serializable to Object--><path d="M74.2307,1589.73 C87.3357,1605.658 105.4751,1627.069 122.5,1645 C155.871,1680.148 194.418,1717.255 228.034,1748.587 " fill="none" id="Serializable-Object" style="stroke: #A80036; stroke-width: 1.0;"/><polygon fill="none" points="233.187,1743.819,243.097,1762.549,223.67,1754.086,233.187,1743.819" style="stroke: #A80036; stroke-width: 1.0;"/><!--link Comparable to Object--><path d="M218.867,1596.659 C228.175,1619.358 241.662,1652.248 255.514,1686.029 " fill="none" id="Comparable-Object" style="stroke: #A80036; stroke-width: 1.0;"/><polygon fill="none" points="262.111,1683.668,263.223,1704.828,249.158,1688.979,262.111,1683.668" style="stroke: #A80036; stroke-width: 1.0;"/><!--link CharSequence to Object--><path d="M386.265,1645.111 C380.886,1658.228 375.169,1672.171 369.389,1686.266 " fill="none" id="CharSequence-Object" style="stroke: #A80036; stroke-width: 1.0;"/><polygon fill="none" points="375.844,1688.976,361.779,1704.825,362.89,1683.664,375.844,1688.976" style="stroke: #A80036; stroke-width: 1.0;"/></g></svg>