<?xml version="1.0" encoding="UTF-8" standalone="no"?><svg xmlns="http://www.w3.org/2000/svg" xmlns:xlink="http://www.w3.org/1999/xlink" contentScriptType="application/ecmascript" contentStyleType="text/css" height="895px" preserveAspectRatio="none" style="width:2481px;height:895px;" version="1.1" viewBox="0 0 2481 895" width="2481px" zoomAndPan="magnify"><defs><filter height="300%" id="fl30elxsa0kpy" width="300%" x="-1" y="-1"><feGaussianBlur result="blurOut" stdDeviation="2.0"/><feColorMatrix in="blurOut" result="blurOut2" type="matrix" values="0 0 0 0 0 0 0 0 0 0 0 0 0 0 0 0 0 0 .4 0"/><feOffset dx="4.0" dy="4.0" in="blurOut2" result="blurOut3"/><feBlend in="SourceGraphic" in2="blurOut3" mode="normal"/></filter></defs><g><!--class Application--><rect fill="#FEFECE" filter="url(#fl30elxsa0kpy)" height="60.8047" id="Application" style="stroke: #A80036; stroke-width: 1.5;" width="161" x="1076.5" y="8"/><ellipse cx="1118.5" cy="24" fill="#ADD1B2" rx="11" ry="11" style="stroke: #A80036; stroke-width: 1.0;"/><path d="M1120.8438,19.6719 L1121.0156,19.75 C1121.2344,19.4375 1121.4375,19.3438 1121.7344,19.3438 C1122.0313,19.3438 1122.3125,19.4844 1122.4688,19.75 C1122.5625,19.9063 1122.5781,20.0313 1122.5781,20.4688 L1122.5781,21.8906 C1122.5781,22.3125 1122.5469,22.5 1122.4375,22.6563 C1122.2656,22.875 1122,23.0156 1121.7344,23.0156 C1121.5156,23.0156 1121.2813,22.9063 1121.1406,22.7656 C1121,22.6406 1120.9688,22.5156 1120.9063,22.1094 C1120.8125,21.7031 1120.6406,21.4844 1120.1563,21.2031 C1119.6875,20.9531 1119.0781,20.7969 1118.5,20.7969 C1116.7656,20.7969 1115.5156,22.1094 1115.5156,23.8906 L1115.5156,24.9844 C1115.5156,26.6875 1116.8125,27.7813 1118.8594,27.7813 C1119.625,27.7813 1120.3125,27.6563 1120.7344,27.3906 C1120.9219,27.2969 1120.9219,27.2969 1121.375,26.8125 C1121.5625,26.625 1121.7656,26.5469 1121.9844,26.5469 C1122.4531,26.5469 1122.8438,26.9375 1122.8438,27.3906 C1122.8438,27.7813 1122.5156,28.2344 1121.9375,28.6406 C1121.1875,29.1875 1120.0313,29.4844 1118.8125,29.4844 C1115.9219,29.4844 1113.8125,27.5938 1113.8125,25.0156 L1113.8125,23.8906 C1113.8125,21.1719 1115.8125,19.0938 1118.4375,19.0938 C1119.3125,19.0938 1119.9063,19.2344 1120.8438,19.6719 Z "/><text fill="#000000" font-family="sans-serif" font-size="12" lengthAdjust="spacingAndGlyphs" textLength="69" x="1138.5" y="28.1543">Application</text><line style="stroke: #A80036; stroke-width: 1.5;" x1="1077.5" x2="1236.5" y1="40" y2="40"/><line style="stroke: #A80036; stroke-width: 1.5;" x1="1077.5" x2="1236.5" y1="48" y2="48"/><ellipse cx="1087.5" cy="59.9023" fill="#84BE84" rx="3" ry="3" style="stroke: #038048; stroke-width: 1.0;"/><text fill="#000000" font-family="sans-serif" font-size="11" lengthAdjust="spacingAndGlyphs" text-decoration="underline" textLength="135" x="1096.5" y="62.2104">void main(String[] args)</text><line style="stroke: #000000; stroke-width: 1.0;" x1="1096.5" x2="1231.5" y1="64.2104" y2="64.2104"/><!--class Database--><rect fill="#FEFECE" filter="url(#fl30elxsa0kpy)" height="99.2188" id="Database" style="stroke: #A80036; stroke-width: 1.5;" width="216" x="6" y="581.5"/><ellipse cx="79.25" cy="597.5" fill="#ADD1B2" rx="11" ry="11" style="stroke: #A80036; stroke-width: 1.0;"/><path d="M81.5938,593.1719 L81.7656,593.25 C81.9844,592.9375 82.1875,592.8438 82.4844,592.8438 C82.7813,592.8438 83.0625,592.9844 83.2188,593.25 C83.3125,593.4063 83.3281,593.5313 83.3281,593.9688 L83.3281,595.3906 C83.3281,595.8125 83.2969,596 83.1875,596.1563 C83.0156,596.375 82.75,596.5156 82.4844,596.5156 C82.2656,596.5156 82.0313,596.4063 81.8906,596.2656 C81.75,596.1406 81.7188,596.0156 81.6563,595.6094 C81.5625,595.2031 81.3906,594.9844 80.9063,594.7031 C80.4375,594.4531 79.8281,594.2969 79.25,594.2969 C77.5156,594.2969 76.2656,595.6094 76.2656,597.3906 L76.2656,598.4844 C76.2656,600.1875 77.5625,601.2813 79.6094,601.2813 C80.375,601.2813 81.0625,601.1563 81.4844,600.8906 C81.6719,600.7969 81.6719,600.7969 82.125,600.3125 C82.3125,600.125 82.5156,600.0469 82.7344,600.0469 C83.2031,600.0469 83.5938,600.4375 83.5938,600.8906 C83.5938,601.2813 83.2656,601.7344 82.6875,602.1406 C81.9375,602.6875 80.7813,602.9844 79.5625,602.9844 C76.6719,602.9844 74.5625,601.0938 74.5625,598.5156 L74.5625,597.3906 C74.5625,594.6719 76.5625,592.5938 79.1875,592.5938 C80.0625,592.5938 80.6563,592.7344 81.5938,593.1719 Z "/><text fill="#000000" font-family="sans-serif" font-size="12" lengthAdjust="spacingAndGlyphs" textLength="61" x="99.75" y="601.6543">Database</text><line style="stroke: #A80036; stroke-width: 1.5;" x1="7" x2="221" y1="613.5" y2="613.5"/><rect fill="none" height="6" style="stroke: #C82930; stroke-width: 1.0;" width="6" x="14" y="622.4023"/><text fill="#000000" font-family="sans-serif" font-size="11" lengthAdjust="spacingAndGlyphs" textLength="144" x="26" y="627.7104">List&lt;SootClass&gt; classes</text><rect fill="none" height="6" style="stroke: #C82930; stroke-width: 1.0;" width="6" x="14" y="635.207"/><text fill="#000000" font-family="sans-serif" font-size="11" lengthAdjust="spacingAndGlyphs" textLength="190" x="26" y="640.5151">List&lt;Dependency&gt; dependencies</text><rect fill="none" height="6" style="stroke: #C82930; stroke-width: 1.0;" width="6" x="14" y="648.0117"/><text fill="#000000" font-family="sans-serif" font-size="11" lengthAdjust="spacingAndGlyphs" textLength="155" x="26" y="653.3198">Map&lt;String, String&gt; config</text><rect fill="none" height="6" style="stroke: #C82930; stroke-width: 1.0;" width="6" x="14" y="660.8164"/><text fill="#000000" font-family="sans-serif" font-size="11" lengthAdjust="spacingAndGlyphs" textLength="73" x="26" y="666.1245">Scene scene</text><line style="stroke: #A80036; stroke-width: 1.5;" x1="7" x2="221" y1="672.7188" y2="672.7188"/><!--class Transformer--><rect fill="#FEFECE" filter="url(#fl30elxsa0kpy)" height="73.6094" id="Transformer" style="stroke: #A80036; stroke-width: 1.5;" width="221" x="1003.5" y="371"/><ellipse cx="1072.25" cy="387" fill="#A9DCDF" rx="11" ry="11" style="stroke: #A80036; stroke-width: 1.0;"/><path d="M1073.8281,388.8125 L1069.7813,388.8125 L1069.3906,389.7969 L1069.7813,389.7969 C1070.2344,389.7969 1070.375,389.8281 1070.5469,389.9531 C1070.7656,390.125 1070.8906,390.375 1070.8906,390.6563 C1070.8906,390.9375 1070.75,391.2344 1070.4844,391.375 C1070.3594,391.4688 1070.1406,391.5 1069.7813,391.5 L1067.5156,391.5 C1066.7656,391.5 1066.3906,391.2188 1066.3906,390.6563 C1066.3906,390.3594 1066.5469,390.0781 1066.7969,389.9219 C1066.9531,389.8125 1067.1094,389.7969 1067.5313,389.7969 L1070.1719,383.2813 L1069.0938,383.2813 C1068.6563,383.2813 1068.4844,383.25 1068.3125,383.1406 C1068.0938,382.9688 1067.9531,382.7188 1067.9531,382.4375 C1067.9531,382.1563 1068.1094,381.875 1068.3594,381.7031 C1068.5156,381.6094 1068.6406,381.5938 1069.0938,381.5938 L1072.7656,381.5938 L1076.1563,389.7969 C1076.625,389.7969 1076.7813,389.8281 1076.9531,389.9688 C1077.1719,390.125 1077.3125,390.375 1077.3125,390.6563 C1077.3125,390.9375 1077.1563,391.2344 1076.9063,391.375 C1076.7656,391.4688 1076.5469,391.5 1076.1875,391.5 L1073.8281,391.5 C1073.4063,391.5 1073.2031,391.4531 1073.0625,391.3281 C1072.8438,391.1719 1072.7031,390.9219 1072.7031,390.6563 C1072.7031,390.3594 1072.8594,390.0781 1073.1094,389.9219 C1073.2656,389.8125 1073.375,389.7969 1073.8281,389.7969 L1074.2188,389.7969 Z M1073.125,387.1094 L1071.7969,383.8438 L1070.4531,387.1094 Z "/><text fill="#000000" font-family="sans-serif" font-size="12" font-style="italic" lengthAdjust="spacingAndGlyphs" textLength="75" x="1092.75" y="391.1543">Transformer</text><line style="stroke: #A80036; stroke-width: 1.5;" x1="1004.5" x2="1223.5" y1="403" y2="403"/><rect fill="none" height="6" style="stroke: #C82930; stroke-width: 1.0;" width="6" x="1011.5" y="411.9023"/><text fill="#000000" font-family="sans-serif" font-size="11" lengthAdjust="spacingAndGlyphs" textLength="103" x="1023.5" y="417.2104">list&lt;IFilter&gt; filters</text><line style="stroke: #A80036; stroke-width: 1.5;" x1="1004.5" x2="1223.5" y1="423.8047" y2="423.8047"/><ellipse cx="1014.5" cy="435.707" fill="#84BE84" rx="3" ry="3" style="stroke: #038048; stroke-width: 1.0;"/><text fill="#000000" font-family="sans-serif" font-size="11" lengthAdjust="spacingAndGlyphs" textLength="195" x="1023.5" y="438.0151">Database transform(Database db)</text><!--class RecursiveTransformer--><rect fill="#FEFECE" filter="url(#fl30elxsa0kpy)" height="99.2188" id="RecursiveTransformer" style="stroke: #A80036; stroke-width: 1.5;" width="503" x="257.5" y="581.5"/><ellipse cx="436.75" cy="597.5" fill="#ADD1B2" rx="11" ry="11" style="stroke: #A80036; stroke-width: 1.0;"/><path d="M439.0938,593.1719 L439.2656,593.25 C439.4844,592.9375 439.6875,592.8438 439.9844,592.8438 C440.2813,592.8438 440.5625,592.9844 440.7188,593.25 C440.8125,593.4063 440.8281,593.5313 440.8281,593.9688 L440.8281,595.3906 C440.8281,595.8125 440.7969,596 440.6875,596.1563 C440.5156,596.375 440.25,596.5156 439.9844,596.5156 C439.7656,596.5156 439.5313,596.4063 439.3906,596.2656 C439.25,596.1406 439.2188,596.0156 439.1563,595.6094 C439.0625,595.2031 438.8906,594.9844 438.4063,594.7031 C437.9375,594.4531 437.3281,594.2969 436.75,594.2969 C435.0156,594.2969 433.7656,595.6094 433.7656,597.3906 L433.7656,598.4844 C433.7656,600.1875 435.0625,601.2813 437.1094,601.2813 C437.875,601.2813 438.5625,601.1563 438.9844,600.8906 C439.1719,600.7969 439.1719,600.7969 439.625,600.3125 C439.8125,600.125 440.0156,600.0469 440.2344,600.0469 C440.7031,600.0469 441.0938,600.4375 441.0938,600.8906 C441.0938,601.2813 440.7656,601.7344 440.1875,602.1406 C439.4375,602.6875 438.2813,602.9844 437.0625,602.9844 C434.1719,602.9844 432.0625,601.0938 432.0625,598.5156 L432.0625,597.3906 C432.0625,594.6719 434.0625,592.5938 436.6875,592.5938 C437.5625,592.5938 438.1563,592.7344 439.0938,593.1719 Z "/><text fill="#000000" font-family="sans-serif" font-size="12" lengthAdjust="spacingAndGlyphs" textLength="136" x="457.25" y="601.6543">RecursiveTransformer</text><line style="stroke: #A80036; stroke-width: 1.5;" x1="258.5" x2="759.5" y1="613.5" y2="613.5"/><rect fill="none" height="6" style="stroke: #C82930; stroke-width: 1.0;" width="6" x="265.5" y="622.4023"/><text fill="#000000" font-family="sans-serif" font-size="11" lengthAdjust="spacingAndGlyphs" textLength="106" x="277.5" y="627.7104">List&lt;IFilter&gt; filters</text><line style="stroke: #A80036; stroke-width: 1.5;" x1="258.5" x2="759.5" y1="634.3047" y2="634.3047"/><ellipse cx="268.5" cy="646.207" fill="#84BE84" rx="3" ry="3" style="stroke: #038048; stroke-width: 1.0;"/><text fill="#000000" font-family="sans-serif" font-size="11" lengthAdjust="spacingAndGlyphs" textLength="241" x="277.5" y="648.5151">RecursiveTransformer(List&lt;IFilter&gt; filters)</text><ellipse cx="268.5" cy="659.0117" fill="#84BE84" rx="3" ry="3" style="stroke: #038048; stroke-width: 1.0;"/><text fill="#000000" font-family="sans-serif" font-size="11" lengthAdjust="spacingAndGlyphs" textLength="195" x="277.5" y="661.3198">Database transform(Database db)</text><rect fill="#F24D5C" height="6" style="stroke: #C82930; stroke-width: 1.0;" width="6" x="265.5" y="668.8164"/><text fill="#000000" font-family="sans-serif" font-size="11" lengthAdjust="spacingAndGlyphs" textLength="477" x="277.5" y="674.1245">void computeAllSuperTypes(SootClass clazz, Collection&lt;SootClass&gt; allSuperTypes)</text><!--class PrivacyTransformer--><rect fill="#FEFECE" filter="url(#fl30elxsa0kpy)" height="86.4141" id="PrivacyTransformer" style="stroke: #A80036; stroke-width: 1.5;" width="252" x="796" y="588"/><ellipse cx="858.25" cy="604" fill="#ADD1B2" rx="11" ry="11" style="stroke: #A80036; stroke-width: 1.0;"/><path d="M860.5938,599.6719 L860.7656,599.75 C860.9844,599.4375 861.1875,599.3438 861.4844,599.3438 C861.7813,599.3438 862.0625,599.4844 862.2188,599.75 C862.3125,599.9063 862.3281,600.0313 862.3281,600.4688 L862.3281,601.8906 C862.3281,602.3125 862.2969,602.5 862.1875,602.6563 C862.0156,602.875 861.75,603.0156 861.4844,603.0156 C861.2656,603.0156 861.0313,602.9063 860.8906,602.7656 C860.75,602.6406 860.7188,602.5156 860.6563,602.1094 C860.5625,601.7031 860.3906,601.4844 859.9063,601.2031 C859.4375,600.9531 858.8281,600.7969 858.25,600.7969 C856.5156,600.7969 855.2656,602.1094 855.2656,603.8906 L855.2656,604.9844 C855.2656,606.6875 856.5625,607.7813 858.6094,607.7813 C859.375,607.7813 860.0625,607.6563 860.4844,607.3906 C860.6719,607.2969 860.6719,607.2969 861.125,606.8125 C861.3125,606.625 861.5156,606.5469 861.7344,606.5469 C862.2031,606.5469 862.5938,606.9375 862.5938,607.3906 C862.5938,607.7813 862.2656,608.2344 861.6875,608.6406 C860.9375,609.1875 859.7813,609.4844 858.5625,609.4844 C855.6719,609.4844 853.5625,607.5938 853.5625,605.0156 L853.5625,603.8906 C853.5625,601.1719 855.5625,599.0938 858.1875,599.0938 C859.0625,599.0938 859.6563,599.2344 860.5938,599.6719 Z "/><text fill="#000000" font-family="sans-serif" font-size="12" lengthAdjust="spacingAndGlyphs" textLength="119" x="878.75" y="608.1543">PrivacyTransformer</text><line style="stroke: #A80036; stroke-width: 1.5;" x1="797" x2="1047" y1="620" y2="620"/><rect fill="none" height="6" style="stroke: #C82930; stroke-width: 1.0;" width="6" x="804" y="628.9023"/><text fill="#000000" font-family="sans-serif" font-size="11" lengthAdjust="spacingAndGlyphs" textLength="106" x="816" y="634.2104">List&lt;IFilter&gt; filters</text><line style="stroke: #A80036; stroke-width: 1.5;" x1="797" x2="1047" y1="640.8047" y2="640.8047"/><ellipse cx="807" cy="652.707" fill="#84BE84" rx="3" ry="3" style="stroke: #038048; stroke-width: 1.0;"/><text fill="#000000" font-family="sans-serif" font-size="11" lengthAdjust="spacingAndGlyphs" textLength="226" x="816" y="655.0151">PrivacyTransformer(List&lt;IFilter&gt; filters)</text><ellipse cx="807" cy="665.5117" fill="#84BE84" rx="3" ry="3" style="stroke: #038048; stroke-width: 1.0;"/><text fill="#000000" font-family="sans-serif" font-size="11" lengthAdjust="spacingAndGlyphs" textLength="195" x="816" y="667.8198">Database transform(Database db)</text><!--class RenderingTransformer--><rect fill="#FEFECE" filter="url(#fl30elxsa0kpy)" height="214.4609" id="RenderingTransformer" style="stroke: #A80036; stroke-width: 1.5;" width="445" x="1083.5" y="524"/><ellipse cx="1231.75" cy="540" fill="#ADD1B2" rx="11" ry="11" style="stroke: #A80036; stroke-width: 1.0;"/><path d="M1234.0938,535.6719 L1234.2656,535.75 C1234.4844,535.4375 1234.6875,535.3438 1234.9844,535.3438 C1235.2813,535.3438 1235.5625,535.4844 1235.7188,535.75 C1235.8125,535.9063 1235.8281,536.0313 1235.8281,536.4688 L1235.8281,537.8906 C1235.8281,538.3125 1235.7969,538.5 1235.6875,538.6563 C1235.5156,538.875 1235.25,539.0156 1234.9844,539.0156 C1234.7656,539.0156 1234.5313,538.9063 1234.3906,538.7656 C1234.25,538.6406 1234.2188,538.5156 1234.1563,538.1094 C1234.0625,537.7031 1233.8906,537.4844 1233.4063,537.2031 C1232.9375,536.9531 1232.3281,536.7969 1231.75,536.7969 C1230.0156,536.7969 1228.7656,538.1094 1228.7656,539.8906 L1228.7656,540.9844 C1228.7656,542.6875 1230.0625,543.7813 1232.1094,543.7813 C1232.875,543.7813 1233.5625,543.6563 1233.9844,543.3906 C1234.1719,543.2969 1234.1719,543.2969 1234.625,542.8125 C1234.8125,542.625 1235.0156,542.5469 1235.2344,542.5469 C1235.7031,542.5469 1236.0938,542.9375 1236.0938,543.3906 C1236.0938,543.7813 1235.7656,544.2344 1235.1875,544.6406 C1234.4375,545.1875 1233.2813,545.4844 1232.0625,545.4844 C1229.1719,545.4844 1227.0625,543.5938 1227.0625,541.0156 L1227.0625,539.8906 C1227.0625,537.1719 1229.0625,535.0938 1231.6875,535.0938 C1232.5625,535.0938 1233.1563,535.2344 1234.0938,535.6719 Z "/><text fill="#000000" font-family="sans-serif" font-size="12" lengthAdjust="spacingAndGlyphs" textLength="140" x="1252.25" y="544.1543">RenderingTransformer</text><line style="stroke: #A80036; stroke-width: 1.5;" x1="1084.5" x2="1527.5" y1="556" y2="556"/><rect fill="none" height="6" style="stroke: #C82930; stroke-width: 1.0;" width="6" x="1091.5" y="564.9023"/><text fill="#000000" font-family="sans-serif" font-size="11" lengthAdjust="spacingAndGlyphs" textLength="106" x="1103.5" y="570.2104">List&lt;IFilter&gt; filters</text><rect fill="none" height="6" style="stroke: #C82930; stroke-width: 1.0;" width="6" x="1091.5" y="577.707"/><text fill="#000000" font-family="sans-serif" font-size="11" lengthAdjust="spacingAndGlyphs" textLength="232" x="1103.5" y="583.0151">Map&lt;RELATIONSHIP, String&gt; dependMap</text><line style="stroke: #A80036; stroke-width: 1.5;" x1="1084.5" x2="1527.5" y1="589.6094" y2="589.6094"/><ellipse cx="1094.5" cy="601.5117" fill="#84BE84" rx="3" ry="3" style="stroke: #038048; stroke-width: 1.0;"/><text fill="#000000" font-family="sans-serif" font-size="11" lengthAdjust="spacingAndGlyphs" textLength="236" x="1103.5" y="603.8198">RenderingTransformer(List&lt;IFilter&gt; filter)</text><ellipse cx="1094.5" cy="614.3164" fill="#84BE84" rx="3" ry="3" style="stroke: #038048; stroke-width: 1.0;"/><text fill="#000000" font-family="sans-serif" font-size="11" lengthAdjust="spacingAndGlyphs" textLength="195" x="1103.5" y="616.6245">Database transform(Database db)</text><rect fill="#F24D5C" height="6" style="stroke: #C82930; stroke-width: 1.0;" width="6" x="1091.5" y="624.1211"/><text fill="#000000" font-family="sans-serif" font-size="11" lengthAdjust="spacingAndGlyphs" textLength="145" x="1103.5" y="629.4292">void render(Database db)</text><rect fill="#F24D5C" height="6" style="stroke: #C82930; stroke-width: 1.0;" width="6" x="1091.5" y="636.9258"/><text fill="#000000" font-family="sans-serif" font-size="11" lengthAdjust="spacingAndGlyphs" textLength="370" x="1103.5" y="642.2339">void renderClassHeader(StringBuilder umlCode, SootClass clazz)</text><rect fill="#F24D5C" height="6" style="stroke: #C82930; stroke-width: 1.0;" width="6" x="1091.5" y="649.7305"/><text fill="#000000" font-family="sans-serif" font-size="11" lengthAdjust="spacingAndGlyphs" textLength="315" x="1103.5" y="655.0386">void renderField(StringBuilder umlCode, SootField field)</text><rect fill="#F24D5C" height="6" style="stroke: #C82930; stroke-width: 1.0;" width="6" x="1091.5" y="662.5352"/><text fill="#000000" font-family="sans-serif" font-size="11" lengthAdjust="spacingAndGlyphs" textLength="364" x="1103.5" y="667.8433">void renderMethod(StringBuilder umlCode, SootMethod method)</text><rect fill="#F24D5C" height="6" style="stroke: #C82930; stroke-width: 1.0;" width="6" x="1091.5" y="675.3398"/><text fill="#000000" font-family="sans-serif" font-size="11" lengthAdjust="spacingAndGlyphs" textLength="419" x="1103.5" y="680.6479">void renderDependency(StringBuilder umlCode, Dependency dependency)</text><rect fill="#F24D5C" height="6" style="stroke: #C82930; stroke-width: 1.0;" width="6" x="1091.5" y="688.1445"/><text fill="#000000" font-family="sans-serif" font-size="11" lengthAdjust="spacingAndGlyphs" textLength="286" x="1103.5" y="693.4526">List&lt;SootClass&gt; getFilteredClasses(Database db)</text><rect fill="#F24D5C" height="6" style="stroke: #C82930; stroke-width: 1.0;" width="6" x="1091.5" y="700.9492"/><text fill="#000000" font-family="sans-serif" font-size="11" lengthAdjust="spacingAndGlyphs" textLength="283" x="1103.5" y="706.2573">List&lt;SootField&gt; getFilteredFields(SootClass clazz)</text><rect fill="#F24D5C" height="6" style="stroke: #C82930; stroke-width: 1.0;" width="6" x="1091.5" y="713.7539"/><text fill="#000000" font-family="sans-serif" font-size="11" lengthAdjust="spacingAndGlyphs" textLength="313" x="1103.5" y="719.062">List&lt;SootMethod&gt; getFilteredMethods(SootClass clazz)</text><rect fill="#F24D5C" height="6" style="stroke: #C82930; stroke-width: 1.0;" width="6" x="1091.5" y="726.5586"/><text fill="#000000" font-family="sans-serif" font-size="11" lengthAdjust="spacingAndGlyphs" textLength="179" x="1103.5" y="731.8667">void saveCode(String umlCode)</text><!--class DependencyTransformer--><rect fill="#FEFECE" filter="url(#fl30elxsa0kpy)" height="86.4141" id="DependencyTransformer" style="stroke: #A80036; stroke-width: 1.5;" width="274" x="1564" y="588"/><ellipse cx="1619.75" cy="604" fill="#ADD1B2" rx="11" ry="11" style="stroke: #A80036; stroke-width: 1.0;"/><path d="M1622.0938,599.6719 L1622.2656,599.75 C1622.4844,599.4375 1622.6875,599.3438 1622.9844,599.3438 C1623.2813,599.3438 1623.5625,599.4844 1623.7188,599.75 C1623.8125,599.9063 1623.8281,600.0313 1623.8281,600.4688 L1623.8281,601.8906 C1623.8281,602.3125 1623.7969,602.5 1623.6875,602.6563 C1623.5156,602.875 1623.25,603.0156 1622.9844,603.0156 C1622.7656,603.0156 1622.5313,602.9063 1622.3906,602.7656 C1622.25,602.6406 1622.2188,602.5156 1622.1563,602.1094 C1622.0625,601.7031 1621.8906,601.4844 1621.4063,601.2031 C1620.9375,600.9531 1620.3281,600.7969 1619.75,600.7969 C1618.0156,600.7969 1616.7656,602.1094 1616.7656,603.8906 L1616.7656,604.9844 C1616.7656,606.6875 1618.0625,607.7813 1620.1094,607.7813 C1620.875,607.7813 1621.5625,607.6563 1621.9844,607.3906 C1622.1719,607.2969 1622.1719,607.2969 1622.625,606.8125 C1622.8125,606.625 1623.0156,606.5469 1623.2344,606.5469 C1623.7031,606.5469 1624.0938,606.9375 1624.0938,607.3906 C1624.0938,607.7813 1623.7656,608.2344 1623.1875,608.6406 C1622.4375,609.1875 1621.2813,609.4844 1620.0625,609.4844 C1617.1719,609.4844 1615.0625,607.5938 1615.0625,605.0156 L1615.0625,603.8906 C1615.0625,601.1719 1617.0625,599.0938 1619.6875,599.0938 C1620.5625,599.0938 1621.1563,599.2344 1622.0938,599.6719 Z "/><text fill="#000000" font-family="sans-serif" font-size="12" lengthAdjust="spacingAndGlyphs" textLength="154" x="1640.25" y="608.1543">DependencyTransformer</text><line style="stroke: #A80036; stroke-width: 1.5;" x1="1565" x2="1837" y1="620" y2="620"/><rect fill="none" height="6" style="stroke: #C82930; stroke-width: 1.0;" width="6" x="1572" y="628.9023"/><text fill="#000000" font-family="sans-serif" font-size="11" lengthAdjust="spacingAndGlyphs" textLength="99" x="1584" y="634.2104">List&lt;IFilter&gt; filter</text><line style="stroke: #A80036; stroke-width: 1.5;" x1="1565" x2="1837" y1="640.8047" y2="640.8047"/><ellipse cx="1575" cy="652.707" fill="#84BE84" rx="3" ry="3" style="stroke: #038048; stroke-width: 1.0;"/><text fill="#000000" font-family="sans-serif" font-size="11" lengthAdjust="spacingAndGlyphs" textLength="248" x="1584" y="655.0151">DependencyTransformer(List&lt;IFilter&gt; filter)</text><ellipse cx="1575" cy="665.5117" fill="#84BE84" rx="3" ry="3" style="stroke: #038048; stroke-width: 1.0;"/><text fill="#000000" font-family="sans-serif" font-size="11" lengthAdjust="spacingAndGlyphs" textLength="195" x="1584" y="667.8198">Database transform(Database db)</text><!--class Preprocessor--><rect fill="#FEFECE" filter="url(#fl30elxsa0kpy)" height="163.2422" id="Preprocessor" style="stroke: #A80036; stroke-width: 1.5;" width="272" x="1021" y="129"/><ellipse cx="1110.75" cy="145" fill="#ADD1B2" rx="11" ry="11" style="stroke: #A80036; stroke-width: 1.0;"/><path d="M1113.0938,140.6719 L1113.2656,140.75 C1113.4844,140.4375 1113.6875,140.3438 1113.9844,140.3438 C1114.2813,140.3438 1114.5625,140.4844 1114.7188,140.75 C1114.8125,140.9063 1114.8281,141.0313 1114.8281,141.4688 L1114.8281,142.8906 C1114.8281,143.3125 1114.7969,143.5 1114.6875,143.6563 C1114.5156,143.875 1114.25,144.0156 1113.9844,144.0156 C1113.7656,144.0156 1113.5313,143.9063 1113.3906,143.7656 C1113.25,143.6406 1113.2188,143.5156 1113.1563,143.1094 C1113.0625,142.7031 1112.8906,142.4844 1112.4063,142.2031 C1111.9375,141.9531 1111.3281,141.7969 1110.75,141.7969 C1109.0156,141.7969 1107.7656,143.1094 1107.7656,144.8906 L1107.7656,145.9844 C1107.7656,147.6875 1109.0625,148.7813 1111.1094,148.7813 C1111.875,148.7813 1112.5625,148.6563 1112.9844,148.3906 C1113.1719,148.2969 1113.1719,148.2969 1113.625,147.8125 C1113.8125,147.625 1114.0156,147.5469 1114.2344,147.5469 C1114.7031,147.5469 1115.0938,147.9375 1115.0938,148.3906 C1115.0938,148.7813 1114.7656,149.2344 1114.1875,149.6406 C1113.4375,150.1875 1112.2813,150.4844 1111.0625,150.4844 C1108.1719,150.4844 1106.0625,148.5938 1106.0625,146.0156 L1106.0625,144.8906 C1106.0625,142.1719 1108.0625,140.0938 1110.6875,140.0938 C1111.5625,140.0938 1112.1563,140.2344 1113.0938,140.6719 Z "/><text fill="#000000" font-family="sans-serif" font-size="12" lengthAdjust="spacingAndGlyphs" textLength="84" x="1131.25" y="149.1543">Preprocessor</text><line style="stroke: #A80036; stroke-width: 1.5;" x1="1022" x2="1292" y1="161" y2="161"/><rect fill="none" height="6" style="stroke: #C82930; stroke-width: 1.0;" width="6" x="1029" y="169.9023"/><text fill="#000000" font-family="sans-serif" font-size="11" lengthAdjust="spacingAndGlyphs" textLength="155" x="1041" y="175.2104">Map&lt;String, String&gt; config</text><rect fill="none" height="6" style="stroke: #C82930; stroke-width: 1.0;" width="6" x="1029" y="182.707"/><text fill="#000000" font-family="sans-serif" font-size="11" lengthAdjust="spacingAndGlyphs" textLength="151" x="1041" y="188.0151">Map&lt;String, IFilter&gt; filters</text><rect fill="none" height="6" style="stroke: #C82930; stroke-width: 1.0;" width="6" x="1029" y="195.5117"/><text fill="#000000" font-family="sans-serif" font-size="11" lengthAdjust="spacingAndGlyphs" textLength="72" x="1041" y="200.8198">Database db</text><line style="stroke: #A80036; stroke-width: 1.5;" x1="1022" x2="1292" y1="207.4141" y2="207.4141"/><ellipse cx="1032" cy="219.3164" fill="#84BE84" rx="3" ry="3" style="stroke: #038048; stroke-width: 1.0;"/><text fill="#000000" font-family="sans-serif" font-size="11" lengthAdjust="spacingAndGlyphs" textLength="142" x="1041" y="221.6245">Preprocessor(String arg)</text><rect fill="#F24D5C" height="6" style="stroke: #C82930; stroke-width: 1.0;" width="6" x="1029" y="229.1211"/><text fill="#000000" font-family="sans-serif" font-size="11" lengthAdjust="spacingAndGlyphs" textLength="82" x="1041" y="234.4292">void makeDB()</text><ellipse cx="1032" cy="244.9258" fill="#84BE84" rx="3" ry="3" style="stroke: #038048; stroke-width: 1.0;"/><text fill="#000000" font-family="sans-serif" font-size="11" lengthAdjust="spacingAndGlyphs" textLength="89" x="1041" y="247.2339">void makeUML()</text><ellipse cx="1032" cy="257.7305" fill="#84BE84" rx="3" ry="3" style="stroke: #038048; stroke-width: 1.0;"/><text fill="#000000" font-family="sans-serif" font-size="11" lengthAdjust="spacingAndGlyphs" textLength="210" x="1041" y="260.0386">void addFilter(String key, IFilter filter)</text><rect fill="#F24D5C" height="6" style="stroke: #C82930; stroke-width: 1.0;" width="6" x="1029" y="267.5352"/><text fill="#000000" font-family="sans-serif" font-size="11" lengthAdjust="spacingAndGlyphs" textLength="246" x="1041" y="272.8433">List&lt;Transformer&gt; initializeTransformers()</text><rect fill="#F24D5C" height="6" style="stroke: #C82930; stroke-width: 1.0;" width="6" x="1029" y="280.3398"/><text fill="#000000" font-family="sans-serif" font-size="11" lengthAdjust="spacingAndGlyphs" textLength="161" x="1041" y="285.6479">List&lt;IFilter&gt; initializeFilters()</text><!--class IFilter--><rect fill="#FEFECE" filter="url(#fl30elxsa0kpy)" height="86.4141" id="IFilter" style="stroke: #A80036; stroke-width: 1.5;" width="281" x="1873.5" y="588"/><ellipse cx="1992.25" cy="604" fill="#B4A7E5" rx="11" ry="11" style="stroke: #A80036; stroke-width: 1.0;"/><path d="M1993.2031,600.7813 L1993.2031,607.2969 L1994.9219,607.2969 C1995.375,607.2969 1995.5156,607.3281 1995.6875,607.4531 C1995.9219,607.625 1996.0313,607.875 1996.0313,608.1563 C1996.0313,608.7188 1995.6719,609 1994.9219,609 L1989.7813,609 C1989.375,609 1989.1719,608.9531 1989.0156,608.8281 C1988.7969,608.6719 1988.6563,608.4063 1988.6563,608.1563 C1988.6563,607.8594 1988.8125,607.5781 1989.0625,607.4219 C1989.2188,607.3125 1989.3438,607.2969 1989.7813,607.2969 L1991.5,607.2969 L1991.5,600.7813 L1989.7813,600.7813 C1989.3594,600.7813 1989.1719,600.75 1989.0156,600.6406 C1988.7969,600.4688 1988.6563,600.2188 1988.6563,599.9375 C1988.6563,599.6563 1988.8125,599.3594 1989.0625,599.2031 C1989.2188,599.1094 1989.3438,599.0938 1989.7813,599.0938 L1994.9219,599.0938 C1995.375,599.0938 1995.5156,599.125 1995.6875,599.2344 C1995.9219,599.4063 1996.0313,599.6719 1996.0313,599.9375 C1996.0313,600.2344 1995.8906,600.5156 1995.625,600.6719 C1995.5,600.75 1995.3125,600.7813 1994.9219,600.7813 Z "/><text fill="#000000" font-family="sans-serif" font-size="12" font-style="italic" lengthAdjust="spacingAndGlyphs" textLength="35" x="2012.75" y="608.1543">IFilter</text><line style="stroke: #A80036; stroke-width: 1.5;" x1="1874.5" x2="2153.5" y1="620" y2="620"/><line style="stroke: #A80036; stroke-width: 1.5;" x1="1874.5" x2="2153.5" y1="628" y2="628"/><ellipse cx="1884.5" cy="639.9023" fill="#84BE84" rx="3" ry="3" style="stroke: #038048; stroke-width: 1.0;"/><text fill="#000000" font-family="sans-serif" font-size="11" lengthAdjust="spacingAndGlyphs" textLength="229" x="1893.5" y="642.2104">boolean shouldProcess(SootClass clazz)</text><ellipse cx="1884.5" cy="652.707" fill="#84BE84" rx="3" ry="3" style="stroke: #038048; stroke-width: 1.0;"/><text fill="#000000" font-family="sans-serif" font-size="11" lengthAdjust="spacingAndGlyphs" textLength="255" x="1893.5" y="655.0151">boolean shouldProcess(SootMethod method)</text><ellipse cx="1884.5" cy="665.5117" fill="#84BE84" rx="3" ry="3" style="stroke: #038048; stroke-width: 1.0;"/><text fill="#000000" font-family="sans-serif" font-size="11" lengthAdjust="spacingAndGlyphs" textLength="221" x="1893.5" y="667.8198">boolean shouldProcess(SootField field)</text><!--class PublicFilter--><rect fill="#FEFECE" filter="url(#fl30elxsa0kpy)" height="86.4141" id="PublicFilter" style="stroke: #A80036; stroke-width: 1.5;" width="281" x="1557.5" y="798"/><ellipse cx="1659.75" cy="814" fill="#ADD1B2" rx="11" ry="11" style="stroke: #A80036; stroke-width: 1.0;"/><path d="M1662.0938,809.6719 L1662.2656,809.75 C1662.4844,809.4375 1662.6875,809.3438 1662.9844,809.3438 C1663.2813,809.3438 1663.5625,809.4844 1663.7188,809.75 C1663.8125,809.9063 1663.8281,810.0313 1663.8281,810.4688 L1663.8281,811.8906 C1663.8281,812.3125 1663.7969,812.5 1663.6875,812.6563 C1663.5156,812.875 1663.25,813.0156 1662.9844,813.0156 C1662.7656,813.0156 1662.5313,812.9063 1662.3906,812.7656 C1662.25,812.6406 1662.2188,812.5156 1662.1563,812.1094 C1662.0625,811.7031 1661.8906,811.4844 1661.4063,811.2031 C1660.9375,810.9531 1660.3281,810.7969 1659.75,810.7969 C1658.0156,810.7969 1656.7656,812.1094 1656.7656,813.8906 L1656.7656,814.9844 C1656.7656,816.6875 1658.0625,817.7813 1660.1094,817.7813 C1660.875,817.7813 1661.5625,817.6563 1661.9844,817.3906 C1662.1719,817.2969 1662.1719,817.2969 1662.625,816.8125 C1662.8125,816.625 1663.0156,816.5469 1663.2344,816.5469 C1663.7031,816.5469 1664.0938,816.9375 1664.0938,817.3906 C1664.0938,817.7813 1663.7656,818.2344 1663.1875,818.6406 C1662.4375,819.1875 1661.2813,819.4844 1660.0625,819.4844 C1657.1719,819.4844 1655.0625,817.5938 1655.0625,815.0156 L1655.0625,813.8906 C1655.0625,811.1719 1657.0625,809.0938 1659.6875,809.0938 C1660.5625,809.0938 1661.1563,809.2344 1662.0938,809.6719 Z "/><text fill="#000000" font-family="sans-serif" font-size="12" lengthAdjust="spacingAndGlyphs" textLength="68" x="1680.25" y="818.1543">PublicFilter</text><line style="stroke: #A80036; stroke-width: 1.5;" x1="1558.5" x2="1837.5" y1="830" y2="830"/><line style="stroke: #A80036; stroke-width: 1.5;" x1="1558.5" x2="1837.5" y1="838" y2="838"/><ellipse cx="1568.5" cy="849.9023" fill="#84BE84" rx="3" ry="3" style="stroke: #038048; stroke-width: 1.0;"/><text fill="#000000" font-family="sans-serif" font-size="11" lengthAdjust="spacingAndGlyphs" textLength="229" x="1577.5" y="852.2104">boolean shouldProcess(SootClass clazz)</text><ellipse cx="1568.5" cy="862.707" fill="#84BE84" rx="3" ry="3" style="stroke: #038048; stroke-width: 1.0;"/><text fill="#000000" font-family="sans-serif" font-size="11" lengthAdjust="spacingAndGlyphs" textLength="255" x="1577.5" y="865.0151">boolean shouldProcess(SootMethod method)</text><ellipse cx="1568.5" cy="875.5117" fill="#84BE84" rx="3" ry="3" style="stroke: #038048; stroke-width: 1.0;"/><text fill="#000000" font-family="sans-serif" font-size="11" lengthAdjust="spacingAndGlyphs" textLength="221" x="1577.5" y="877.8198">boolean shouldProcess(SootField field)</text><!--class PrivateFilter--><rect fill="#FEFECE" filter="url(#fl30elxsa0kpy)" height="86.4141" id="PrivateFilter" style="stroke: #A80036; stroke-width: 1.5;" width="281" x="1873.5" y="798"/><ellipse cx="1972.75" cy="814" fill="#ADD1B2" rx="11" ry="11" style="stroke: #A80036; stroke-width: 1.0;"/><path d="M1975.0938,809.6719 L1975.2656,809.75 C1975.4844,809.4375 1975.6875,809.3438 1975.9844,809.3438 C1976.2813,809.3438 1976.5625,809.4844 1976.7188,809.75 C1976.8125,809.9063 1976.8281,810.0313 1976.8281,810.4688 L1976.8281,811.8906 C1976.8281,812.3125 1976.7969,812.5 1976.6875,812.6563 C1976.5156,812.875 1976.25,813.0156 1975.9844,813.0156 C1975.7656,813.0156 1975.5313,812.9063 1975.3906,812.7656 C1975.25,812.6406 1975.2188,812.5156 1975.1563,812.1094 C1975.0625,811.7031 1974.8906,811.4844 1974.4063,811.2031 C1973.9375,810.9531 1973.3281,810.7969 1972.75,810.7969 C1971.0156,810.7969 1969.7656,812.1094 1969.7656,813.8906 L1969.7656,814.9844 C1969.7656,816.6875 1971.0625,817.7813 1973.1094,817.7813 C1973.875,817.7813 1974.5625,817.6563 1974.9844,817.3906 C1975.1719,817.2969 1975.1719,817.2969 1975.625,816.8125 C1975.8125,816.625 1976.0156,816.5469 1976.2344,816.5469 C1976.7031,816.5469 1977.0938,816.9375 1977.0938,817.3906 C1977.0938,817.7813 1976.7656,818.2344 1976.1875,818.6406 C1975.4375,819.1875 1974.2813,819.4844 1973.0625,819.4844 C1970.1719,819.4844 1968.0625,817.5938 1968.0625,815.0156 L1968.0625,813.8906 C1968.0625,811.1719 1970.0625,809.0938 1972.6875,809.0938 C1973.5625,809.0938 1974.1563,809.2344 1975.0938,809.6719 Z "/><text fill="#000000" font-family="sans-serif" font-size="12" lengthAdjust="spacingAndGlyphs" textLength="74" x="1993.25" y="818.1543">PrivateFilter</text><line style="stroke: #A80036; stroke-width: 1.5;" x1="1874.5" x2="2153.5" y1="830" y2="830"/><line style="stroke: #A80036; stroke-width: 1.5;" x1="1874.5" x2="2153.5" y1="838" y2="838"/><ellipse cx="1884.5" cy="849.9023" fill="#84BE84" rx="3" ry="3" style="stroke: #038048; stroke-width: 1.0;"/><text fill="#000000" font-family="sans-serif" font-size="11" lengthAdjust="spacingAndGlyphs" textLength="229" x="1893.5" y="852.2104">boolean shouldProcess(SootClass clazz)</text><ellipse cx="1884.5" cy="862.707" fill="#84BE84" rx="3" ry="3" style="stroke: #038048; stroke-width: 1.0;"/><text fill="#000000" font-family="sans-serif" font-size="11" lengthAdjust="spacingAndGlyphs" textLength="255" x="1893.5" y="865.0151">boolean shouldProcess(SootMethod method)</text><ellipse cx="1884.5" cy="875.5117" fill="#84BE84" rx="3" ry="3" style="stroke: #038048; stroke-width: 1.0;"/><text fill="#000000" font-family="sans-serif" font-size="11" lengthAdjust="spacingAndGlyphs" textLength="221" x="1893.5" y="877.8198">boolean shouldProcess(SootField field)</text><!--class ProtectedFilter--><rect fill="#FEFECE" filter="url(#fl30elxsa0kpy)" height="86.4141" id="ProtectedFilter" style="stroke: #A80036; stroke-width: 1.5;" width="281" x="2189.5" y="798"/><ellipse cx="2279.25" cy="814" fill="#ADD1B2" rx="11" ry="11" style="stroke: #A80036; stroke-width: 1.0;"/><path d="M2281.5938,809.6719 L2281.7656,809.75 C2281.9844,809.4375 2282.1875,809.3438 2282.4844,809.3438 C2282.7813,809.3438 2283.0625,809.4844 2283.2188,809.75 C2283.3125,809.9063 2283.3281,810.0313 2283.3281,810.4688 L2283.3281,811.8906 C2283.3281,812.3125 2283.2969,812.5 2283.1875,812.6563 C2283.0156,812.875 2282.75,813.0156 2282.4844,813.0156 C2282.2656,813.0156 2282.0313,812.9063 2281.8906,812.7656 C2281.75,812.6406 2281.7188,812.5156 2281.6563,812.1094 C2281.5625,811.7031 2281.3906,811.4844 2280.9063,811.2031 C2280.4375,810.9531 2279.8281,810.7969 2279.25,810.7969 C2277.5156,810.7969 2276.2656,812.1094 2276.2656,813.8906 L2276.2656,814.9844 C2276.2656,816.6875 2277.5625,817.7813 2279.6094,817.7813 C2280.375,817.7813 2281.0625,817.6563 2281.4844,817.3906 C2281.6719,817.2969 2281.6719,817.2969 2282.125,816.8125 C2282.3125,816.625 2282.5156,816.5469 2282.7344,816.5469 C2283.2031,816.5469 2283.5938,816.9375 2283.5938,817.3906 C2283.5938,817.7813 2283.2656,818.2344 2282.6875,818.6406 C2281.9375,819.1875 2280.7813,819.4844 2279.5625,819.4844 C2276.6719,819.4844 2274.5625,817.5938 2274.5625,815.0156 L2274.5625,813.8906 C2274.5625,811.1719 2276.5625,809.0938 2279.1875,809.0938 C2280.0625,809.0938 2280.6563,809.2344 2281.5938,809.6719 Z "/><text fill="#000000" font-family="sans-serif" font-size="12" lengthAdjust="spacingAndGlyphs" textLength="93" x="2299.75" y="818.1543">ProtectedFilter</text><line style="stroke: #A80036; stroke-width: 1.5;" x1="2190.5" x2="2469.5" y1="830" y2="830"/><line style="stroke: #A80036; stroke-width: 1.5;" x1="2190.5" x2="2469.5" y1="838" y2="838"/><ellipse cx="2200.5" cy="849.9023" fill="#84BE84" rx="3" ry="3" style="stroke: #038048; stroke-width: 1.0;"/><text fill="#000000" font-family="sans-serif" font-size="11" lengthAdjust="spacingAndGlyphs" textLength="229" x="2209.5" y="852.2104">boolean shouldProcess(SootClass clazz)</text><ellipse cx="2200.5" cy="862.707" fill="#84BE84" rx="3" ry="3" style="stroke: #038048; stroke-width: 1.0;"/><text fill="#000000" font-family="sans-serif" font-size="11" lengthAdjust="spacingAndGlyphs" textLength="255" x="2209.5" y="865.0151">boolean shouldProcess(SootMethod method)</text><ellipse cx="2200.5" cy="875.5117" fill="#84BE84" rx="3" ry="3" style="stroke: #038048; stroke-width: 1.0;"/><text fill="#000000" font-family="sans-serif" font-size="11" lengthAdjust="spacingAndGlyphs" textLength="221" x="2209.5" y="877.8198">boolean shouldProcess(SootField field)</text><!--class Dependency--><rect fill="#FEFECE" filter="url(#fl30elxsa0kpy)" height="86.4141" id="Dependency" style="stroke: #A80036; stroke-width: 1.5;" width="115" x="732.5" y="798"/><ellipse cx="749.75" cy="814" fill="#ADD1B2" rx="11" ry="11" style="stroke: #A80036; stroke-width: 1.0;"/><path d="M752.0938,809.6719 L752.2656,809.75 C752.4844,809.4375 752.6875,809.3438 752.9844,809.3438 C753.2813,809.3438 753.5625,809.4844 753.7188,809.75 C753.8125,809.9063 753.8281,810.0313 753.8281,810.4688 L753.8281,811.8906 C753.8281,812.3125 753.7969,812.5 753.6875,812.6563 C753.5156,812.875 753.25,813.0156 752.9844,813.0156 C752.7656,813.0156 752.5313,812.9063 752.3906,812.7656 C752.25,812.6406 752.2188,812.5156 752.1563,812.1094 C752.0625,811.7031 751.8906,811.4844 751.4063,811.2031 C750.9375,810.9531 750.3281,810.7969 749.75,810.7969 C748.0156,810.7969 746.7656,812.1094 746.7656,813.8906 L746.7656,814.9844 C746.7656,816.6875 748.0625,817.7813 750.1094,817.7813 C750.875,817.7813 751.5625,817.6563 751.9844,817.3906 C752.1719,817.2969 752.1719,817.2969 752.625,816.8125 C752.8125,816.625 753.0156,816.5469 753.2344,816.5469 C753.7031,816.5469 754.0938,816.9375 754.0938,817.3906 C754.0938,817.7813 753.7656,818.2344 753.1875,818.6406 C752.4375,819.1875 751.2813,819.4844 750.0625,819.4844 C747.1719,819.4844 745.0625,817.5938 745.0625,815.0156 L745.0625,813.8906 C745.0625,811.1719 747.0625,809.0938 749.6875,809.0938 C750.5625,809.0938 751.1563,809.2344 752.0938,809.6719 Z "/><text fill="#000000" font-family="sans-serif" font-size="12" lengthAdjust="spacingAndGlyphs" textLength="78" x="764.25" y="818.1543">Dependency</text><line style="stroke: #A80036; stroke-width: 1.5;" x1="733.5" x2="846.5" y1="830" y2="830"/><rect fill="none" height="6" style="stroke: #C82930; stroke-width: 1.0;" width="6" x="740.5" y="838.9023"/><text fill="#000000" font-family="sans-serif" font-size="11" lengthAdjust="spacingAndGlyphs" textLength="89" x="752.5" y="844.2104">SootClass from</text><rect fill="none" height="6" style="stroke: #C82930; stroke-width: 1.0;" width="6" x="740.5" y="851.707"/><text fill="#000000" font-family="sans-serif" font-size="11" lengthAdjust="spacingAndGlyphs" textLength="73" x="752.5" y="857.0151">SootClass to</text><rect fill="none" height="6" style="stroke: #C82930; stroke-width: 1.0;" width="6" x="740.5" y="864.5117"/><text fill="#000000" font-family="sans-serif" font-size="11" lengthAdjust="spacingAndGlyphs" textLength="60" x="752.5" y="869.8198">enum type</text><line style="stroke: #A80036; stroke-width: 1.5;" x1="733.5" x2="846.5" y1="876.4141" y2="876.4141"/><!--class PlantUmlMaker--><rect fill="#FEFECE" filter="url(#fl30elxsa0kpy)" height="112.0234" id="PlantUmlMaker" style="stroke: #A80036; stroke-width: 1.5;" width="171" x="1331.5" y="352"/><ellipse cx="1367.2" cy="368" fill="#ADD1B2" rx="11" ry="11" style="stroke: #A80036; stroke-width: 1.0;"/><path d="M1369.5438,363.6719 L1369.7156,363.75 C1369.9344,363.4375 1370.1375,363.3438 1370.4344,363.3438 C1370.7313,363.3438 1371.0125,363.4844 1371.1688,363.75 C1371.2625,363.9063 1371.2781,364.0313 1371.2781,364.4688 L1371.2781,365.8906 C1371.2781,366.3125 1371.2469,366.5 1371.1375,366.6563 C1370.9656,366.875 1370.7,367.0156 1370.4344,367.0156 C1370.2156,367.0156 1369.9813,366.9063 1369.8406,366.7656 C1369.7,366.6406 1369.6688,366.5156 1369.6063,366.1094 C1369.5125,365.7031 1369.3406,365.4844 1368.8563,365.2031 C1368.3875,364.9531 1367.7781,364.7969 1367.2,364.7969 C1365.4656,364.7969 1364.2156,366.1094 1364.2156,367.8906 L1364.2156,368.9844 C1364.2156,370.6875 1365.5125,371.7813 1367.5594,371.7813 C1368.325,371.7813 1369.0125,371.6563 1369.4344,371.3906 C1369.6219,371.2969 1369.6219,371.2969 1370.075,370.8125 C1370.2625,370.625 1370.4656,370.5469 1370.6844,370.5469 C1371.1531,370.5469 1371.5438,370.9375 1371.5438,371.3906 C1371.5438,371.7813 1371.2156,372.2344 1370.6375,372.6406 C1369.8875,373.1875 1368.7313,373.4844 1367.5125,373.4844 C1364.6219,373.4844 1362.5125,371.5938 1362.5125,369.0156 L1362.5125,367.8906 C1362.5125,365.1719 1364.5125,363.0938 1367.1375,363.0938 C1368.0125,363.0938 1368.6063,363.2344 1369.5438,363.6719 Z "/><text fill="#000000" font-family="sans-serif" font-size="12" lengthAdjust="spacingAndGlyphs" textLength="93" x="1385.8" y="372.1543">PlantUmlMaker</text><line style="stroke: #A80036; stroke-width: 1.5;" x1="1332.5" x2="1501.5" y1="384" y2="384"/><rect fill="none" height="6" style="stroke: #C82930; stroke-width: 1.0;" width="6" x="1339.5" y="392.9023"/><text fill="#000000" font-family="sans-serif" font-size="11" lengthAdjust="spacingAndGlyphs" textLength="53" x="1351.5" y="398.2104">String dir</text><rect fill="none" height="6" style="stroke: #C82930; stroke-width: 1.0;" width="6" x="1339.5" y="405.707"/><text fill="#000000" font-family="sans-serif" font-size="11" lengthAdjust="spacingAndGlyphs" text-decoration="underline" textLength="99" x="1351.5" y="411.0151">String codeString</text><line style="stroke: #000000; stroke-width: 1.0;" x1="1351.5" x2="1450.5" y1="413.0151" y2="413.0151"/><rect fill="none" height="6" style="stroke: #C82930; stroke-width: 1.0;" width="6" x="1339.5" y="418.5117"/><text fill="#000000" font-family="sans-serif" font-size="11" lengthAdjust="spacingAndGlyphs" text-decoration="underline" textLength="79" x="1351.5" y="423.8198">Logger logger</text><line style="stroke: #000000; stroke-width: 1.0;" x1="1351.5" x2="1430.5" y1="425.8198" y2="425.8198"/><line style="stroke: #A80036; stroke-width: 1.5;" x1="1332.5" x2="1501.5" y1="430.4141" y2="430.4141"/><ellipse cx="1342.5" cy="442.3164" fill="#84BE84" rx="3" ry="3" style="stroke: #038048; stroke-width: 1.0;"/><text fill="#000000" font-family="sans-serif" font-size="11" lengthAdjust="spacingAndGlyphs" textLength="145" x="1351.5" y="444.6245">PlantUmlMaker(String dir)</text><ellipse cx="1342.5" cy="455.1211" fill="#84BE84" rx="3" ry="3" style="stroke: #038048; stroke-width: 1.0;"/><text fill="#000000" font-family="sans-serif" font-size="11" lengthAdjust="spacingAndGlyphs" textLength="54" x="1351.5" y="457.4292">void run()</text><!--class Runnable--><rect fill="#FEFECE" filter="url(#fl30elxsa0kpy)" height="48" id="Runnable" style="stroke: #A80036; stroke-width: 1.5;" width="91" x="1371.5" y="186.5"/><ellipse cx="1386.5" cy="202.5" fill="#B4A7E5" rx="11" ry="11" style="stroke: #A80036; stroke-width: 1.0;"/><path d="M1387.4531,199.2813 L1387.4531,205.7969 L1389.1719,205.7969 C1389.625,205.7969 1389.7656,205.8281 1389.9375,205.9531 C1390.1719,206.125 1390.2813,206.375 1390.2813,206.6563 C1390.2813,207.2188 1389.9219,207.5 1389.1719,207.5 L1384.0313,207.5 C1383.625,207.5 1383.4219,207.4531 1383.2656,207.3281 C1383.0469,207.1719 1382.9063,206.9063 1382.9063,206.6563 C1382.9063,206.3594 1383.0625,206.0781 1383.3125,205.9219 C1383.4688,205.8125 1383.5938,205.7969 1384.0313,205.7969 L1385.75,205.7969 L1385.75,199.2813 L1384.0313,199.2813 C1383.6094,199.2813 1383.4219,199.25 1383.2656,199.1406 C1383.0469,198.9688 1382.9063,198.7188 1382.9063,198.4375 C1382.9063,198.1563 1383.0625,197.8594 1383.3125,197.7031 C1383.4688,197.6094 1383.5938,197.5938 1384.0313,197.5938 L1389.1719,197.5938 C1389.625,197.5938 1389.7656,197.625 1389.9375,197.7344 C1390.1719,197.9063 1390.2813,198.1719 1390.2813,198.4375 C1390.2813,198.7344 1390.1406,199.0156 1389.875,199.1719 C1389.75,199.25 1389.5625,199.2813 1389.1719,199.2813 Z "/><text fill="#000000" font-family="sans-serif" font-size="12" font-style="italic" lengthAdjust="spacingAndGlyphs" textLength="59" x="1400.5" y="206.6543">Runnable</text><line style="stroke: #A80036; stroke-width: 1.5;" x1="1372.5" x2="1461.5" y1="218.5" y2="218.5"/><line style="stroke: #A80036; stroke-width: 1.5;" x1="1372.5" x2="1461.5" y1="226.5" y2="226.5"/><!--link Transformer to RecursiveTransformer--><path d="M985.575,451.425 C922.756,472.566 846.17,498.918 778,524 C728.889,542.07 675.167,563.001 628.735,581.466 " fill="none" id="Transformer-RecursiveTransformer" style="stroke: #A80036; stroke-width: 1.0;"/><polygon fill="none" points="983.416,444.766,1004.604,445.038,987.871,458.038,983.416,444.766" style="stroke: #A80036; stroke-width: 1.0;"/><!--link Transformer to PrivacyTransformer--><path d="M1069.14,460.63 C1035.54,499.313 990.122,551.588 958.675,587.785 " fill="none" id="Transformer-PrivacyTransformer" style="stroke: #A80036; stroke-width: 1.0;"/><polygon fill="none" points="1063.89,456.001,1082.3,445.494,1074.46,465.183,1063.89,456.001" style="stroke: #A80036; stroke-width: 1.0;"/><!--link Transformer to RenderingTransformer--><path d="M1159.06,460.862 C1175.48,479.764 1194.7,501.889 1213.73,523.788 " fill="none" id="Transformer-RenderingTransformer" style="stroke: #A80036; stroke-width: 1.0;"/><polygon fill="none" points="1153.54,465.183,1145.7,445.494,1164.11,456.001,1153.54,465.183" style="stroke: #A80036; stroke-width: 1.0;"/><!--link Transformer to DependencyTransformer--><path d="M1216.52,452.178 C1228.38,456.479 1240.38,460.53 1252,464 C1379.78,502.171 1423.2,471.997 1546,524 C1583.67,539.954 1621.66,565.74 1650.6,587.885 " fill="none" id="Transformer-DependencyTransformer" style="stroke: #A80036; stroke-width: 1.0;"/><polygon fill="none" points="1213.71,458.6,1197.45,445.015,1218.63,445.494,1213.71,458.6" style="stroke: #A80036; stroke-width: 1.0;"/><!--link IFilter to PublicFilter--><path d="M1934.08,685.55 C1908.82,702.398 1880.78,721.032 1855,738 C1824.86,757.835 1791.34,779.646 1763.04,797.9899 " fill="none" id="IFilter-PublicFilter" style="stroke: #A80036; stroke-width: 1.0; stroke-dasharray: 7.0,7.0;"/><polygon fill="none" points="1930.53,679.499,1951.05,674.213,1938.31,691.141,1930.53,679.499" style="stroke: #A80036; stroke-width: 1.0;"/><!--link IFilter to PrivateFilter--><path d="M2014,694.402 C2014,727.879 2014,768.242 2014,797.9707 " fill="none" id="IFilter-PrivateFilter" style="stroke: #A80036; stroke-width: 1.0; stroke-dasharray: 7.0,7.0;"/><polygon fill="none" points="2007,694.092,2014,674.092,2021,694.092,2007,694.092" style="stroke: #A80036; stroke-width: 1.0;"/><!--link IFilter to ProtectedFilter--><path d="M2094.99,685.31 C2148.19,720.328 2216.81,765.495 2266.15,797.9707 " fill="none" id="IFilter-ProtectedFilter" style="stroke: #A80036; stroke-width: 1.0; stroke-dasharray: 7.0,7.0;"/><polygon fill="none" points="2090.8,690.935,2077.95,674.092,2098.5,679.241,2090.8,690.935" style="stroke: #A80036; stroke-width: 1.0;"/><!--link Runnable to PlantUmlMaker--><path d="M1417,254.889 C1417,283.395 1417,320.946 1417,351.605 " fill="none" id="Runnable-PlantUmlMaker" style="stroke: #A80036; stroke-width: 1.0; stroke-dasharray: 7.0,7.0;"/><polygon fill="none" points="1410,254.694,1417,234.694,1424,254.694,1410,254.694" style="stroke: #A80036; stroke-width: 1.0;"/><!--link Application to Preprocessor--><path d="M1157,69.112 C1157,84.394 1157,103.906 1157,123.491 " fill="none" id="Application-Preprocessor" style="stroke: #A80036; stroke-width: 1.0; stroke-dasharray: 7.0,7.0;"/><polygon fill="#A80036" points="1157,128.74,1161,119.74,1157,123.74,1153,119.74,1157,128.74" style="stroke: #A80036; stroke-width: 1.0;"/><!--link DependencyTransformer to Dependency--><path d="M1652.37,674.038 C1623.4,696.735 1584.8,723.087 1546,738 C1419.2,786.74 1010.14,822.8654 852.631,835.2942 " fill="none" id="DependencyTransformer-Dependency" style="stroke: #A80036; stroke-width: 1.0; stroke-dasharray: 7.0,7.0;"/><polygon fill="#A80036" points="847.59,835.6907,856.8765,838.9712,852.5745,835.2978,856.2479,830.9959,847.59,835.6907" style="stroke: #A80036; stroke-width: 1.0;"/><!--link Preprocessor to Transformer--><path d="M1139.26,292.146 C1133.69,317.463 1127.78,344.361 1123.07,365.757 " fill="none" id="Preprocessor-Transformer" style="stroke: #A80036; stroke-width: 1.0;"/><polygon fill="#A80036" points="1121.96,370.793,1127.7994,362.862,1123.0338,365.9097,1119.9861,361.144,1121.96,370.793" style="stroke: #A80036; stroke-width: 1.0;"/><!--link Preprocessor to Database--><path d="M1020.63,241.159 C835.495,285.079 498.145,378.272 240,524 C214.104,538.619 188.449,558.859 167.114,577.739 " fill="none" id="Preprocessor-Database" style="stroke: #A80036; stroke-width: 1.0;"/><polygon fill="#A80036" points="163.182,581.247,172.5609,578.2409,166.9132,577.9186,167.2355,572.271,163.182,581.247" style="stroke: #A80036; stroke-width: 1.0;"/><!--link Preprocessor to IFilter--><path d="M1206.09,292.293 C1250.52,365.131 1309.67,461.273 1314,464 C1518.65,593.013 1627.68,441.222 1855,524 C1893.03,537.849 1930.93,562.572 1960.17,584.66 " fill="none" id="Preprocessor-IFilter" style="stroke: #A80036; stroke-width: 1.0; stroke-dasharray: 7.0,7.0;"/><polygon fill="#A80036" points="1964.43,587.898,1959.6915,579.2639,1960.4515,584.8695,1954.846,585.6295,1964.43,587.898" style="stroke: #A80036; stroke-width: 1.0;"/><!--link Preprocessor to PlantUmlMaker--><path d="M1264.25,292.146 C1289.51,311.137 1315.95,331.017 1339.59,348.797 " fill="none" id="Preprocessor-PlantUmlMaker" style="stroke: #A80036; stroke-width: 1.0; stroke-dasharray: 7.0,7.0;"/><polygon fill="#A80036" points="1343.67,351.861,1338.8941,343.2476,1339.6784,348.8498,1334.0762,349.6342,1343.67,351.861" style="stroke: #A80036; stroke-width: 1.0;"/><!--link Database to Dependency--><path d="M159.805,680.538 C182.078,701.338 210.406,724.017 240,738 C404.063,815.5161 621.626,834.2153 727.195,838.6614 " fill="none" id="Database-Dependency" style="stroke: #A80036; stroke-width: 1.0;"/><polygon fill="#A80036" points="732.445,838.8746,723.6147,834.5128,727.4491,838.6717,723.2901,842.5062,732.445,838.8746" style="stroke: #A80036; stroke-width: 1.0;"/><!--link Transformer to Database--><path d="M1003.356,421.884 C775.996,448.589 274.574,508.762 240,524 C211.439,536.587 184.321,557.719 162.61,577.818 " fill="none" id="Transformer-Database" style="stroke: #A80036; stroke-width: 1.0;"/><polygon fill="#A80036" points="158.898,581.294,168.2018,578.0631,162.548,577.8768,162.7343,572.223,158.898,581.294" style="stroke: #A80036; stroke-width: 1.0;"/><!--link Transformer to IFilter--><path d="M1193.39,445.022 C1212.27,452.355 1232.58,459.264 1252,464 C1513.65,527.814 1601.42,433.273 1855,524 C1893.26,537.688 1931.3,562.541 1960.58,584.743 " fill="none" id="Transformer-IFilter" style="stroke: #A80036; stroke-width: 1.0;"/><polygon fill="#A80036" points="1964.84,587.997,1960.1287,579.3481,1960.871,584.956,1955.2631,585.6984,1964.84,587.997" style="stroke: #A80036; stroke-width: 1.0;"/><!--
@startuml
class Application {
  + {static} void main(String[] args)
}

class Database {
  - List<SootClass> classes
  - List<Dependency> dependencies
  - Map<String, String> config
  - Scene scene
}

Abstract Class Transformer {
  - list<IFilter> filters
  + Database transform(Database db)
}

class RecursiveTransformer extends Transformer {
  -List<IFilter> filters
  + RecursiveTransformer(List<IFilter> filters)
  + Database transform(Database db)
  - void computeAllSuperTypes(SootClass clazz, Collection<SootClass> allSuperTypes)
}

class PrivacyTransformer extends Transformer {
  -List<IFilter> filters
  + PrivacyTransformer(List<IFilter> filters)
  + Database transform(Database db)
}

class RenderingTransformer extends Transformer {
  -List<IFilter> filters
  -Map<RELATIONSHIP, String> dependMap
  + RenderingTransformer(List<IFilter> filter)
  + Database transform(Database db)
  - void render(Database db)
  - void renderClassHeader(StringBuilder umlCode, SootClass clazz)
  - void renderField(StringBuilder umlCode, SootField field)
  - void renderMethod(StringBuilder umlCode, SootMethod method)
  - void renderDependency(StringBuilder umlCode, Dependency dependency)
  - List<SootClass> getFilteredClasses(Database db)
  - List<SootField> getFilteredFields(SootClass clazz)
  - List<SootMethod> getFilteredMethods(SootClass clazz)
  - void saveCode(String umlCode)
}

class DependencyTransformer extends Transformer {
   -List<IFilter> filter
  + DependencyTransformer(List<IFilter> filter)
  + Database transform(Database db)
}

class Preprocessor {
  - Map<String, String> config
  - Map<String, IFilter> filters
  - Database db
  + Preprocessor(String arg)
  - void makeDB()
  + void makeUML()
  + void addFilter(String key, IFilter filter)
  - List<Transformer> initializeTransformers()
  - List<IFilter> initializeFilters()
}

interface IFilter {
  + boolean shouldProcess(SootClass clazz)
  + boolean shouldProcess(SootMethod method)
  + boolean shouldProcess(SootField field)
}
class PublicFilter implements IFilter {
  + boolean shouldProcess(SootClass clazz)
  + boolean shouldProcess(SootMethod method)
  + boolean shouldProcess(SootField field)
}
class PrivateFilter implements IFilter {
  + boolean shouldProcess(SootClass clazz)
  + boolean shouldProcess(SootMethod method)
  + boolean shouldProcess(SootField field)
}
class ProtectedFilter implements IFilter {
  + boolean shouldProcess(SootClass clazz)
  + boolean shouldProcess(SootMethod method)
  + boolean shouldProcess(SootField field)
}

class Dependency {
  - SootClass from
  - SootClass to
  - enum type
}

class PlantUmlMaker implements Runnable {
  - String dir
  - {static} String codeString
  - {static} Logger logger
  + PlantUmlMaker(String dir)
  + void run()
}

Application ..> Preprocessor
DependencyTransformer ..> Dependency
Preprocessor - -> Transformer
Preprocessor - -> Database
Preprocessor ..> IFilter
Preprocessor ..> PlantUmlMaker
Database - -> Dependency
Transformer - -> Database
Transformer- ->IFilter
@enduml

PlantUML version 1.2017.20(Mon Dec 11 16:57:05 UTC 2017)
(GPL source distribution)
Java Runtime: Java(TM) SE Runtime Environment
JVM: Java HotSpot(TM) 64-Bit Server VM
Java Version: 1.7.0_25-b15
Operating System: Linux
Default Encoding: UTF-8
Language: en
Country: US
--></g></svg>